<?xml version="1.0" standalone="no"?>
<!DOCTYPE svg PUBLIC "-//W3C//DTD SVG 1.1//EN" "http://www.w3.org/Graphics/SVG/1.1/DTD/svg11.dtd" >
<svg xmlns="http://www.w3.org/2000/svg">
<metadata></metadata>
<defs>
<font id="rubikitalic" horiz-adv-x="1263" >
<font-face units-per-em="2048" ascent="1638" descent="-410" />
<missing-glyph horiz-adv-x="475" />
<glyph unicode="&#xfb01;" horiz-adv-x="1312" d="M104 874l29 136q4 23 24.5 39t43.5 16h135l20 92q41 193 155 276t306 83h494q23 0 35 -16.5t8 -39.5l-29 -135q-4 -23 -24.5 -39t-43.5 -16h-452q-70 0 -121 -31t-68 -102l-14 -72h612q23 0 35.5 -16.5t7.5 -38.5l-202 -955q-4 -22 -23.5 -38.5t-42.5 -16.5h-155 q-23 0 -36.5 16.5t-9.5 38.5l162 764h-399l-164 -764q-4 -23 -23.5 -39t-41.5 -16h-156q-23 0 -36 16.5t-9 38.5l164 764h-135q-23 0 -36.5 16.5t-9.5 38.5z" />
<glyph unicode="&#xfb02;" horiz-adv-x="1331" d="M104 874l29 136q4 23 24.5 39t43.5 16h135l20 92q41 193 155 276t306 83h187q23 0 35 -16.5t8 -39.5l-29 -135q-4 -23 -24.5 -39t-43.5 -16h-145q-70 0 -121 -31t-68 -102l-14 -72h420l84 395q4 23 23.5 39.5t41.5 16.5h156q23 0 36 -16.5t9 -39.5l-299 -1405 q-4 -23 -23.5 -39t-41.5 -16h-156q-23 0 -36 16.5t-9 38.5l162 764h-418l-164 -764q-4 -23 -23.5 -39t-41.5 -16h-156q-23 0 -36 16.5t-9 38.5l164 764h-135q-23 0 -36.5 16.5t-9.5 38.5z" />
<glyph horiz-adv-x="0" />
<glyph unicode="&#xd;" horiz-adv-x="593" />
<glyph unicode=" "  horiz-adv-x="475" />
<glyph unicode="&#x09;" horiz-adv-x="475" />
<glyph unicode="&#xa0;" horiz-adv-x="475" />
<glyph unicode="!" horiz-adv-x="550" d="M14 55l39 181q4 23 24.5 39t43.5 16h176q22 0 34.5 -16.5t8.5 -38.5l-39 -181q-4 -23 -23.5 -39t-41.5 -16h-177q-23 0 -36 16.5t-9 38.5zM113 469l194 909q4 23 23.5 39.5t42.5 16.5h155q23 0 36.5 -16.5t8.5 -39.5l-194 -909q-4 -23 -24.5 -39t-43.5 -16h-155 q-23 0 -35 16t-8 39z" />
<glyph unicode="&#x22;" horiz-adv-x="856" d="M221 1016l33 364q4 33 21.5 53.5t48.5 20.5h172q23 0 35 -12t12 -31q0 -14 -6 -31l-123 -364q-8 -27 -27.5 -42.5t-42.5 -15.5h-78q-23 0 -35 15.5t-10 42.5zM606 1016l33 364q4 33 21.5 53.5t48.5 20.5h172q23 0 35 -12t12 -31q0 -14 -6 -31l-123 -364 q-8 -27 -27.5 -42.5t-42.5 -15.5h-78q-23 0 -35 15.5t-10 42.5z" />
<glyph unicode="#" horiz-adv-x="1400" d="M43 387l27 129q4 23 24.5 39t42.5 16h172l103 281h-162q-25 0 -36 15.5t-7 39.5l26 129q4 23 25 39.5t43 16.5h197l75 206q6 18 23.5 30.5t36.5 12.5h164q16 0 25 -9t9 -25q0 -10 -2 -17l-71 -198h205l75 206q6 18 23.5 30.5t36.5 12.5h164q16 0 25 -9t9 -25 q0 -10 -2 -17l-71 -198h137q23 0 35 -16.5t8 -39.5l-27 -129q-4 -23 -24.5 -39t-42.5 -16h-174l-101 -281h162q23 0 35 -16t8 -39l-27 -129q-4 -23 -24.5 -39t-42.5 -16h-199l-76 -209q-6 -18 -22.5 -30.5t-36.5 -12.5h-162q-18 0 -30.5 15.5t-4.5 33.5l74 203h-207 l-75 -209q-6 -18 -22.5 -30.5t-37.5 -12.5h-162q-18 0 -30.5 15.5t-3.5 33.5l73 203h-137q-23 0 -35 16.5t-8 38.5zM569 571h205l103 281h-207z" />
<glyph unicode="$" horiz-adv-x="1323" d="M14 336q0 27 2 41q2 25 21.5 40t44.5 15h143q33 0 50.5 -12t23.5 -37q20 -68 78.5 -107.5t197.5 -39.5q135 0 234.5 43t118.5 129q2 8 2 26q0 39 -32 64.5t-88 42t-173 45.5q-27 6 -57.5 13t-67.5 17q-166 43 -246 119t-80 203q0 43 15 115q35 168 160.5 271t334.5 124 l29 135q4 23 24.5 39t43.5 16h165q23 0 35.5 -16t7.5 -39l-30 -147q104 -25 180 -79t116 -121t40 -130q0 -18 -2 -29q-2 -25 -21.5 -40t-44.5 -15h-143q-33 0 -49.5 12.5t-24.5 36.5q-23 57 -81 92t-171 35q-111 0 -197 -46t-100 -120q-4 -29 -4 -37q0 -45 34 -72.5 t102.5 -48t217.5 -53.5q199 -45 293 -128t94 -212q0 -39 -10 -94q-39 -178 -169 -282.5t-376 -120.5l-22 -134q-4 -23 -24.5 -39t-43.5 -16h-166q-23 0 -35 16.5t-8 38.5l27 150q-160 35 -264.5 125t-104.5 211z" />
<glyph unicode="%" horiz-adv-x="1736" d="M102 33q0 16 15 30l1294 1332q21 20 38 29.5t44 9.5h145q20 0 31.5 -9.5t11.5 -23.5q0 -16 -14 -31l-1294 -1331q-20 -20 -38 -29.5t-44 -9.5h-146q-20 0 -31.5 9t-11.5 24zM156 942q0 18 2 29q12 113 47 227q33 113 109.5 179.5t228.5 66.5q80 0 141 -34t95 -89t34 -117 q0 -18 -2 -26q-12 -113 -47 -228q-35 -113 -110.5 -178t-227.5 -65q-80 0 -141.5 33.5t-95 88t-33.5 113.5zM356 981q-12 -98 88 -98q53 0 83 26.5t46 71.5q8 23 22.5 94.5t16.5 93.5l2 23q0 76 -88 76q-96 0 -131 -99q-8 -23 -22.5 -94t-16.5 -94zM969 223q0 18 2 29 q12 113 47 227q33 113 109.5 179.5t228.5 66.5q80 0 141.5 -34t95 -89t33.5 -117q0 -18 -2 -26q-12 -113 -47 -228q-35 -113 -110.5 -178t-227.5 -65q-80 0 -141.5 33.5t-95 88t-33.5 113.5zM1169 262q-12 -98 88 -98q53 0 83 26.5t46 71.5q8 23 22.5 94.5t16.5 94.5l2 22 q0 76 -88 76q-96 0 -131 -98q-8 -23 -22.5 -94.5t-16.5 -94.5z" />
<glyph unicode="&#x26;" horiz-adv-x="1470" d="M53 305q0 43 8 82q18 90 66.5 155.5t110 110.5t159.5 105q-82 117 -82 256q0 45 11 96q33 152 149.5 248t288.5 96q168 0 264 -89t96 -224q0 -43 -8 -78q-25 -113 -96.5 -184.5t-220.5 -161.5l194 -234q84 96 148 222q20 45 63 45h156q23 0 37 -16.5t8 -39.5 q-27 -88 -95.5 -194.5t-164.5 -202.5l164 -197q20 -25 12 -43q-4 -25 -22.5 -41t-41.5 -16h-202q-18 0 -27.5 5t-19.5 15l-84 99q-223 -139 -461 -139q-182 0 -296 88t-114 237zM324 350q0 -53 56 -87t136 -34q78 0 134.5 17.5t123.5 56.5l-225 270q-100 -55 -155.5 -101 t-67.5 -101q-2 -7 -2 -21zM575 1053q0 -39 18.5 -72t57.5 -84q102 57 145.5 95t55.5 91q2 9 2 25q0 39 -27.5 64.5t-85.5 25.5q-76 0 -121 -42t-45 -103z" />
<glyph unicode="'" horiz-adv-x="471" d="M221 1016l33 364q4 33 21.5 53.5t48.5 20.5h172q23 0 35 -12t12 -31q0 -14 -6 -31l-123 -364q-8 -27 -27.5 -42.5t-42.5 -15.5h-78q-23 0 -35 15.5t-10 42.5z" />
<glyph unicode="(" horiz-adv-x="755" d="M53 203q0 199 60 471q68 322 158.5 519.5t232 296.5t352.5 99q23 0 36 -16.5t9 -38.5l-29 -135q-6 -23 -25.5 -38t-41.5 -18q-154 -14 -254 -173.5t-172 -495.5q-66 -313 -66 -469q0 -133 44 -205t145 -80q25 -2 37 -17.5t6 -37.5l-29 -135q-4 -25 -23.5 -41.5 t-41.5 -14.5q-397 20 -398 529z" />
<glyph unicode=")" horiz-adv-x="755" d="M-135 -272l29 135q6 23 25.5 38t41.5 17q154 14 254 174t172 496q66 313 66 469q0 133 -44 204.5t-145 79.5q-25 2 -37 17.5t-6 38.5l29 135q4 25 23.5 41t41.5 14q397 -20 398 -528q0 -199 -60 -471q-68 -322 -159 -519.5t-232 -297t-352 -99.5q-23 0 -36 16.5t-9 39.5z " />
<glyph unicode="*" horiz-adv-x="911" d="M203 1151q0 12 6 20l84 156q18 33 49 33q14 0 29 -10l137 -101l-6 187q0 23 15 41t38 18h168q16 0 25.5 -10t9.5 -25q0 -14 -6 -26l-84 -185l182 101q14 8 31 8q33 0 34 -31l19 -156q4 -23 -13.5 -40t-43.5 -19l-191 -14l117 -119q12 -14 12 -31q0 -29 -29 -45l-151 -96 q-10 -8 -27 -8q-14 0 -25.5 9t-13.5 23l-34 170l-105 -170q-8 -14 -22.5 -23t-28.5 -9q-16 0 -27 8l-110 96q-12 12 -13 27q0 31 27 47l168 121l-182 14q-16 2 -27.5 13.5t-11.5 25.5z" />
<glyph unicode="+" horiz-adv-x="1247" d="M57 549l29 135q4 23 24.5 39t43.5 16h366l80 371q4 23 23.5 39t42.5 16h155q23 0 36 -16t9 -39l-80 -371h365q23 0 35 -16t8 -39l-29 -135q-4 -23 -23.5 -39t-41.5 -16h-365l-80 -373q-4 -23 -24.5 -39t-42.5 -16h-156q-23 0 -35 16t-8 39l80 373h-367q-23 0 -36 16 t-9 39z" />
<glyph unicode="," horiz-adv-x="546" d="M-66 -104l123 335q31 80 105 80h178q18 0 28.5 -10t10.5 -25q0 -8 -8 -24l-217 -354q-14 -25 -35 -38.5t-58 -13.5h-92q-20 0 -31.5 14.5t-3.5 35.5z" />
<glyph unicode="-" horiz-adv-x="991" d="M115 547l28 135q4 23 24.5 39t43.5 16h625q23 0 35 -16t8 -39l-29 -135q-4 -23 -23.5 -39t-42.5 -16h-624q-23 0 -36 16t-9 39z" />
<glyph unicode="." horiz-adv-x="530" d="M2 55l43 201q4 23 24.5 39t43.5 16h190q23 0 35 -16t8 -39l-43 -201q-4 -23 -23.5 -39t-41.5 -16h-191q-23 0 -36 16.5t-9 38.5z" />
<glyph unicode="/" horiz-adv-x="1107" d="M-104 -135q0 16 8 26l1040 1661q37 58 103 58h178q16 0 26.5 -9.5t10.5 -23.5t-11 -31l-1044 -1657q-37 -61 -103 -61h-170q-18 0 -28 10t-10 27z" />
<glyph unicode="0" horiz-adv-x="1335" d="M90 412q0 51 10 123q37 205 76 354q45 176 118 299t202 194.5t329 71.5q227 0 346 -117.5t119 -316.5q0 -53 -10 -121q-39 -211 -78 -364q-47 -181 -114.5 -298.5t-195.5 -187t-339 -69.5q-227 0 -345 116.5t-118 315.5zM371 449q0 -106 51 -159.5t166 -53.5 q137 0 218 77.5t122 231.5q43 156 73 344q8 70 9 96q0 106 -51.5 159.5t-165.5 53.5q-137 0 -218 -78t-122 -231q-43 -156 -74 -344q-8 -70 -8 -96z" />
<glyph unicode="1" horiz-adv-x="927" d="M113 993q0 16 9 31.5t23 24.5l521 350q18 12 38.5 23.5t38.5 11.5h160q23 0 36 -16.5t9 -39.5l-282 -1323q-4 -23 -23.5 -39t-42.5 -16h-166q-23 0 -36 16.5t-9 38.5l207 971l-315 -213q-18 -12 -37 -12q-27 0 -39 22l-86 148q-6 10 -6 22z" />
<glyph unicode="2" horiz-adv-x="1253" d="M-23 55l27 125q6 31 30.5 63.5t45.5 47.5l721 520q65 45 96 90t41 96q6 25 6 54q0 66 -42 106.5t-142 40.5q-113 0 -173.5 -52t-109.5 -145q-12 -25 -31.5 -39t-39.5 -14h-162q-25 0 -38 15.5t-5 40.5q55 203 200.5 326.5t389.5 123.5q135 0 233 -56.5t148.5 -146.5 t50.5 -190q0 -45 -9 -78q-29 -127 -82 -209t-145 -153l-504 -365h549q23 0 36 -16.5t7 -38.5l-31 -146q-4 -23 -23.5 -39t-41.5 -16h-956q-23 0 -36.5 16.5t-9.5 38.5z" />
<glyph unicode="3" horiz-adv-x="1298" d="M16 326q0 18 2 28q4 25 23.5 40.5t44.5 15.5h162q18 0 29.5 -12.5t21.5 -39.5q18 -57 76.5 -89.5t193.5 -32.5q125 0 212 51t108 141q4 25 4 35q0 70 -64.5 103.5t-181.5 33.5h-170q-23 0 -36 16.5t-7 38.5l31 146q4 20 18.5 35.5t40.5 40.5l353 301h-566q-23 0 -36 16 t-9 39l33 145q4 23 23.5 39.5t42.5 16.5h897q22 0 35.5 -16.5t9.5 -39.5l-33 -145q-6 -33 -60 -76l-366 -315q158 -33 242 -115t84 -213q0 -39 -11 -96q-45 -213 -203.5 -325.5t-424.5 -112.5q-164 0 -282 50t-177.5 129t-59.5 167z" />
<glyph unicode="4" horiz-adv-x="1310" d="M8 358l31 146q6 25 21.5 46t43.5 50l793 782q51 51 94 52h146q23 0 36 -16.5t9 -39.5l-174 -819h176q23 0 35 -16.5t8 -38.5l-31 -146q-4 -23 -24.5 -39t-43.5 -16h-176l-53 -248q-4 -23 -23.5 -39t-41.5 -16h-166q-23 0 -36.5 16.5t-8.5 38.5l53 248h-625 q-23 0 -35 16.5t-8 38.5zM412 559h319l86 399z" />
<glyph unicode="5" horiz-adv-x="1249" d="M29 383q2 23 22.5 39t44.5 16h166q20 0 33.5 -13t15.5 -36q6 -86 67.5 -119.5t168.5 -33.5q117 0 203 64.5t108 172.5q4 29 4 41q0 78 -58.5 126t-160.5 50q-63 0 -100 -10t-80 -29q-18 -10 -36.5 -16t-39.5 -6h-188q-23 0 -36 16.5t-9 38.5l211 694q6 23 24.5 39.5 t40.5 16.5h770q23 0 36 -16.5t9 -39.5l-33 -145q-4 -23 -23.5 -39t-41.5 -16h-576l-77 -263q84 31 184 31q131 0 236.5 -46t166 -135t60.5 -214q0 -37 -6 -78q-37 -252 -204 -372.5t-419 -120.5q-170 0 -280.5 54t-159.5 146t-43 203z" />
<glyph unicode="6" horiz-adv-x="1265" d="M53 395q0 57 10 101q16 74 47 133t64 100t100 115l506 549q16 18 31.5 29.5t40.5 11.5h184q23 0 36 -16.5t9 -39.5q-2 -8 -8 -16t-8 -10l-332 -365q131 -2 234.5 -53t161 -142.5t57.5 -209.5q0 -51 -12 -107q-49 -227 -218.5 -361t-425.5 -134q-135 0 -243.5 53t-171 147 t-62.5 215zM334 432q0 -86 62.5 -141t168.5 -55q123 0 216 71.5t116 177.5q6 25 6 50q0 88 -63.5 142t-169.5 54q-92 0 -169 -40t-122 -109.5t-45 -149.5z" />
<glyph unicode="7" horiz-adv-x="1120" d="M123 41q0 20 12 39l711 1098h-615q-23 0 -36 16t-9 39l33 145q4 23 23.5 39.5t42.5 16.5h897q22 0 35.5 -16.5t9.5 -39.5l-29 -135q-4 -20 -25.5 -52t-29.5 -46l-707 -1096q-33 -49 -69 -49h-199q-23 0 -34 11.5t-11 29.5z" />
<glyph unicode="8" horiz-adv-x="1327" d="M53 354q0 43 8 82q20 104 83 188.5t159 141.5q-72 77 -72 192q0 35 11 86q41 190 193.5 300t385.5 110q123 0 227.5 -45t165 -126t60.5 -185q0 -41 -8 -74q-35 -166 -181 -279q113 -94 113 -241q0 -37 -10 -88q-45 -205 -208 -320.5t-431 -115.5q-143 0 -256 47 t-176.5 132t-63.5 195zM332 393q0 -76 72.5 -116.5t179.5 -40.5q118 0 214.5 50t114.5 140q4 20 5 33q0 74 -74 114.5t-180 40.5q-121 0 -215.5 -49t-112.5 -139q-4 -25 -4 -33zM512 1004q0 -63 59.5 -98.5t147.5 -35.5q98 0 176 43t96 121q4 20 4 29q0 66 -59 100.5 t-148 34.5q-111 0 -193.5 -51t-82.5 -143z" />
<glyph unicode="9" horiz-adv-x="1232" d="M127 879q0 37 10 92q47 225 215 354t414 129q129 0 236.5 -51t171 -144.5t63.5 -211.5q0 -41 -10 -97q-14 -74 -48 -135t-68 -102t-107 -123l-502 -549q-16 -18 -31.5 -29.5t-40.5 -11.5h-184q-18 0 -30.5 12.5t-12.5 30.5q0 23 14 39l352 387q-115 14 -216 66.5 t-163.5 140.5t-62.5 203zM408 907q0 -86 63.5 -134t161.5 -48q115 0 205 63.5t112 172.5q6 29 6 53q0 86 -62.5 135t-160.5 49q-115 0 -205 -64.5t-114 -172.5q-6 -27 -6 -54z" />
<glyph unicode=":" horiz-adv-x="561" d="M12 55l43 201q4 23 24.5 39t43.5 16h190q23 0 35 -16t8 -39l-43 -201q-4 -23 -23.5 -39t-41.5 -16h-191q-23 0 -36 16.5t-9 38.5zM166 772l41 201q4 23 24.5 39t42.5 16h191q22 0 34.5 -16.5t8.5 -38.5l-41 -201q-4 -23 -24.5 -39t-43.5 -16h-190q-23 0 -35 16.5t-8 38.5 z" />
<glyph unicode=";" horiz-adv-x="595" d="M-49 -102l123 333q12 33 38.5 56.5t65.5 23.5h178q18 0 27.5 -11t9.5 -26q0 -12 -6 -22l-207 -338q-41 -66 -102 -66h-92q-20 0 -31.5 14.5t-3.5 35.5zM199 772l41 201q4 23 24.5 39t42.5 16h191q22 0 35.5 -16.5t7.5 -38.5l-41 -201q-6 -23 -25.5 -39t-42.5 -16h-190 q-23 0 -35 16.5t-8 38.5z" />
<glyph unicode="&#x3c;" horiz-adv-x="1026" d="M74 655q0 12 2 19l18 86q6 29 24.5 47t53.5 39l819 483q16 8 25 8q16 0 26.5 -12t8.5 -33l-43 -205q-8 -43 -86 -90l-525 -307l394 -313q53 -45 45 -90l-33 -154q-2 -16 -15.5 -26.5t-29.5 -10.5q-18 0 -29 10l-610 482q-25 18 -35 32.5t-10 34.5z" />
<glyph unicode="=" horiz-adv-x="1171" d="M70 295l28 135q4 23 24.5 39t43.5 16h788q23 0 35 -16t8 -39l-28 -135q-4 -23 -24.5 -39t-43.5 -16h-788q-23 0 -35 16t-8 39zM178 801l29 135q4 23 24.5 39t42.5 16h789q23 0 35 -16.5t8 -38.5l-29 -135q-4 -23 -24.5 -39.5t-42.5 -16.5h-789q-22 0 -34.5 16.5 t-8.5 39.5z" />
<glyph unicode="&#x3e;" horiz-adv-x="1024" d="M23 139l43 205q8 43 86 90l524 307l-393 314q-53 45 -45 90l32 153q2 16 15.5 26.5t29.5 10.5q18 0 29 -10l610 -481q25 -18 35 -32.5t10 -35.5q0 -12 -2 -18l-18 -86q-6 -29 -23.5 -47.5t-54.5 -38.5l-819 -484q-16 -8 -25 -8q-16 0 -26.5 12.5t-7.5 32.5z" />
<glyph unicode="?" horiz-adv-x="1155" d="M150 1034q20 100 101 197.5t209 160t283 62.5q109 0 212.5 -44t170 -122t66.5 -176q0 -37 -8 -70q-29 -114 -102.5 -194t-198.5 -172q-88 -66 -135.5 -111t-65.5 -96q-8 -25 -26.5 -40t-41.5 -15h-155q-23 0 -36 16t-7 39q23 86 71 153.5t102 113.5t142 110q84 59 127 98 t55 86q6 23 7 43q0 61 -53.5 98t-153.5 37q-96 0 -164 -43t-129 -131q-18 -25 -31.5 -35t-38.5 -10h-166q-18 0 -28.5 12.5t-5.5 32.5zM317 55l39 181q4 23 24.5 39t43.5 16h176q23 0 35 -16.5t8 -38.5l-39 -181q-4 -23 -23.5 -39t-41.5 -16h-177q-23 0 -36 16.5t-9 38.5z " />
<glyph unicode="@" horiz-adv-x="1765" d="M55 299q0 53 4 80q8 57 34 178t40 172q51 180 165 326.5t292 235.5t416 89q346 0 513 -148.5t167 -395.5q0 -33 -9 -107q-12 -100 -53 -250q-41 -154 -136 -235.5t-228 -81.5q-91 0 -146 26.5t-98 67.5q-8 -8 -42 -44t-88.5 -53.5t-133.5 -17.5q-127 0 -202 81t-75 220 q0 55 12 117q39 193 141.5 306.5t250.5 113.5q152 0 194 -90l4 18q4 23 23.5 39.5t42.5 16.5h106q23 0 36 -16.5t9 -39.5l-94 -436q-2 -8 -2 -22q0 -37 24.5 -58.5t61.5 -21.5q45 0 79 29.5t50 90.5q39 141 47 230q4 57 4 80q0 190 -114.5 282.5t-368.5 92.5 q-229 0 -397 -125t-236 -330q-16 -51 -39.5 -162t-29.5 -168q-2 -18 -3 -53q0 -180 115 -288.5t328 -108.5q152 0 245 26.5t166 71.5q29 16 44.5 23.5t35.5 7.5h152q25 0 37 -16.5t6 -41.5q-6 -16 -23 -30q-100 -84 -172.5 -131.5t-199.5 -82t-314 -34.5q-203 0 -347 75.5 t-219 204.5t-75 287zM692 481q0 -63 30 -98t85 -35q150 0 197 211q8 39 8 80q0 133 -115 133q-72 0 -123 -56.5t-72 -156.5q-10 -47 -10 -78z" />
<glyph unicode="A" horiz-adv-x="1441" d="M-96 45q0 8 8 25l776 1294q23 37 42.5 53.5t49.5 16.5h232q30 0 43.5 -16.5t19.5 -53.5l228 -1294q1 -4 1 -8q0 -22 -18 -40q-22 -22 -51 -22h-137q-59 0 -70 51l-41 228h-647l-135 -228q-14 -23 -34.5 -37t-55.5 -14h-164q-20 0 -33.5 13.5t-13.5 31.5zM494 535h450 l-100 583z" />
<glyph unicode="B" horiz-adv-x="1406" d="M43 55l283 1323q4 23 23.5 39.5t41.5 16.5h584q141 0 231 -50.5t130 -129t40 -164.5q0 -27 -8 -72q-23 -106 -84 -177t-115 -102q111 -90 111 -233q0 -37 -10 -88q-37 -174 -169 -296t-362 -122h-651q-22 0 -36 16q-10 13 -10 29q0 5 1 10zM362 256h379q109 0 173.5 47 t80.5 127q4 14 4 41q0 61 -47 98t-137 37h-379zM492 862h362q207 0 238 158q4 16 4 43q0 57 -42 86t-132 29h-363z" />
<glyph unicode="C" horiz-adv-x="1396" d="M86 446q0 29 8 99q31 188 74 344q72 264 244 414.5t456 150.5q176 0 296 -59.5t179.5 -154.5t59.5 -202q0 -20 -4 -57q-2 -25 -21.5 -40t-44.5 -15h-166q-23 0 -38 14t-13 39v10q0 85 -64 145q-68 64 -216 64q-152 0 -253.5 -86t-138.5 -223q-43 -156 -73 -344 q-6 -33 -6 -66q0 -111 66.5 -177t199.5 -66q150 0 245 63t132 156q8 25 28.5 39t40.5 14h166q25 0 38 -15.5t5 -39.5q-53 -197 -220 -335t-470 -138q-158 0 -272.5 58t-176 164.5t-61.5 243.5z" />
<glyph unicode="D" horiz-adv-x="1441" d="M43 55l283 1323q4 23 23.5 39.5t41.5 16.5h506q256 0 380 -114t124 -321q0 -55 -10 -131q-27 -162 -66 -303q-74 -268 -254 -416.5t-467 -148.5h-516q-23 0 -36 16q-10 13 -10 29q0 5 1 10zM362 256h285q162 0 263.5 84t138.5 225q39 141 65 303q6 35 6 66 q0 113 -69.5 178.5t-216.5 65.5h-275z" />
<glyph unicode="E" d="M43 55q-1 -5 -1 -10q0 -17 10 -29q14 -16 36 -16h899q23 0 42.5 16.5t23.5 38.5l30 146q2 4 2 14q0 16 -12 28.5t-33 12.5h-678l72 340h617q23 0 43 16.5t24 38.5l31 146q4 23 -8.5 39t-34.5 16h-617l70 326h662q23 0 42 16t23 39l33 145q1 5 1 10q0 18 -10 30 q-14 16 -36 16h-883q-23 0 -42 -16.5t-23 -39.5z" />
<glyph unicode="F" horiz-adv-x="1226" d="M43 55l283 1323q4 23 23.5 39.5t41.5 16.5h875q22 0 36 -16q10 -13 10 -30q0 -5 -1 -10l-33 -145q-4 -23 -23.5 -39t-42.5 -16h-653l-86 -398h612q23 0 36.5 -16t8.5 -39l-30 -145q-6 -23 -25.5 -39.5t-42.5 -16.5h-612l-101 -469q-4 -23 -23.5 -39t-41.5 -16h-166 q-23 0 -36 16q-10 13 -10 29q0 5 1 10z" />
<glyph unicode="G" horiz-adv-x="1447" d="M82 432q0 45 10 107q29 162 78 364q139 551 717 551q194 0 316 -62.5t174.5 -149.5t52.5 -165q0 -20 -3 -28q-2 -25 -21.5 -40.5t-43.5 -15.5h-166q-37 0 -49 35q-14 53 -74.5 111.5t-218.5 58.5q-152 0 -263.5 -83t-146.5 -222q-49 -203 -69 -334q-8 -41 -8 -86 q0 -119 73.5 -178t208.5 -59q346 0 414 315l2 16h-250q-23 0 -35 16.5t-8 39.5l31 145q4 23 24.5 39t42.5 16h471q23 0 35.5 -16t7.5 -39l-47 -225q-57 -264 -228 -413.5t-495 -149.5q-164 0 -283.5 56t-184 158.5t-64.5 237.5z" />
<glyph unicode="H" horiz-adv-x="1495" d="M43 55l283 1323q4 23 23.5 39.5t41.5 16.5h166q23 0 36 -16.5t9 -39.5l-113 -526h619l113 526q4 23 23.5 39.5t41.5 16.5h166q23 0 36 -16q10 -13 10 -30q0 -5 -1 -10l-283 -1323q-4 -23 -23.5 -39t-41.5 -16h-166q-23 0 -36 16.5t-9 38.5l115 541h-619l-115 -541 q-4 -23 -23.5 -39t-41.5 -16h-166q-23 0 -36 16q-10 12 -10 28q0 5 1 11z" />
<glyph unicode="I" horiz-adv-x="600" d="M43 55l283 1323q4 23 23.5 39.5t41.5 16.5h166q23 0 36 -16q10 -13 10 -30q0 -5 -1 -10l-283 -1323q-4 -23 -23.5 -39t-41.5 -16h-166q-22 0 -36 16q-10 13 -10 29q0 5 1 10z" />
<glyph unicode="J" horiz-adv-x="1335" d="M2 369q0 43 4 63q4 25 23.5 40t44.5 15h166q18 0 33.5 -11t13.5 -27q0 -94 58 -153.5t190 -59.5q141 0 233 74.5t121 213.5l139 654h-672q-23 0 -36 16t-9 39l33 145q4 23 23.5 39.5t42.5 16.5h893q23 0 36 -16q10 -13 10 -30q0 -5 -1 -10l-185 -866 q-59 -270 -213.5 -401t-449.5 -131q-156 0 -268.5 51t-171 139t-58.5 199z" />
<glyph unicode="K" horiz-adv-x="1277" d="M43 55l283 1323q4 23 23.5 39.5t41.5 16.5h166q23 0 36 -16.5t9 -39.5l-98 -471l536 482q25 23 47.5 34t53.5 11h211q23 0 36 -16q10 -13 10 -30q0 -5 -1 -10q-4 -14 -21 -30l-690 -619l434 -643q12 -19 8 -31q-4 -23 -23.5 -39t-41.5 -16h-162q-51 0 -86 47l-377 559 l-119 -551q-4 -23 -23.5 -39t-41.5 -16h-166q-23 0 -36 16q-10 13 -10 29q0 5 1 10z" />
<glyph unicode="L" horiz-adv-x="1196" d="M43 55l283 1323q4 23 23.5 39.5t41.5 16.5h166q23 0 36 -16.5t9 -39.5l-240 -1122h676q23 0 36 -16q9 -11 9 -26q0 -6 -2 -13l-30 -146q-4 -23 -23.5 -39t-42.5 -16h-897q-23 0 -36 16q-10 13 -10 29q0 5 1 10z" />
<glyph unicode="M" horiz-adv-x="1667" d="M43 55l283 1323q4 23 23.5 39.5t41.5 16.5h129q57 0 78 -56l233 -678l529 678q20 23 41.5 39.5t56.5 16.5h166q23 0 36 -16q10 -13 10 -30q0 -5 -1 -10l-283 -1323q-4 -23 -23.5 -39t-41.5 -16h-166q-23 0 -36 16.5t-9 38.5l170 801l-356 -461q-39 -51 -88 -51h-123 q-45 0 -64 51l-160 461l-170 -801q-4 -23 -23.5 -39t-41.5 -16h-166q-23 0 -36 16q-10 13 -10 29q0 5 1 10z" />
<glyph unicode="N" horiz-adv-x="1452" d="M43 55l283 1323q4 23 23.5 39.5t41.5 16.5h119q49 0 70 -48l415 -878l183 870q4 23 23.5 39.5t41.5 16.5h166q23 0 36 -16q10 -13 10 -30q0 -5 -1 -10l-280 -1323q-4 -23 -24 -39t-42 -16h-121q-29 0 -44 14.5t-28 34.5l-409 875l-187 -869q-4 -23 -23.5 -39t-41.5 -16 h-166q-23 0 -36 16q-10 13 -10 29q0 5 1 10z" />
<glyph unicode="O" horiz-adv-x="1423" d="M86 436q0 53 8 96q12 82 35 187.5t43 179.5q147 555 698 555q158 0 275 -60.5t178 -165t61 -237.5q0 -31 -8 -92q-20 -127 -78 -367q-68 -258 -229.5 -405t-470.5 -147q-158 0 -273.5 59t-177 162.5t-61.5 234.5zM367 473q0 -115 70.5 -176t195.5 -61q143 0 247.5 80.5 t143.5 226.5q47 184 74 346q6 35 6 67q0 115 -69.5 178.5t-196.5 63.5q-144 0 -248.5 -82t-143.5 -227q-51 -180 -73 -346q-6 -37 -6 -70z" />
<glyph unicode="P" horiz-adv-x="1351" d="M43 55l283 1323q4 23 23.5 39.5t41.5 16.5h529q206 0 332 -92.5t126 -262.5q0 -49 -12 -104q-49 -231 -190.5 -347t-409.5 -116h-348l-99 -457q-4 -23 -23.5 -39t-41.5 -16h-166q-23 0 -36 16q-10 13 -10 29q0 5 1 10zM471 768h317q123 0 201 48t101 159q6 31 6 57 q0 78 -56.5 112t-162.5 34h-318z" />
<glyph unicode="Q" horiz-adv-x="1423" d="M86 436q0 53 8 96q12 82 35 187.5t43 179.5q147 555 698 555q158 0 275 -60.5t178 -165t61 -237.5q0 -31 -8 -92q-20 -127 -78 -367q-70 -262 -221 -397l101 -205q6 -10 2 -18q-2 -18 -17.5 -31.5t-34.5 -13.5h-194q-33 2 -47.5 16.5t-24.5 34.5l-41 86q-94 -24 -213 -24 h-10q-158 0 -273.5 59t-177 162.5t-61.5 234.5zM367 473q0 -115 70.5 -176t195.5 -61q143 0 247.5 80.5t143.5 226.5q47 184 74 346q6 35 6 67q0 115 -69.5 178.5t-196.5 63.5q-144 0 -248.5 -82t-143.5 -227q-51 -180 -73 -346q-6 -37 -6 -70z" />
<glyph unicode="R" horiz-adv-x="1370" d="M43 55l283 1323q4 23 23.5 39.5t41.5 16.5h508q211 0 335 -93.5t124 -257.5q0 -55 -10 -98q-35 -156 -116 -255t-243 -157l176 -505q6 -25 -11 -46.5t-42 -21.5h-147q-61 0 -78 55l-166 477h-299l-103 -477q-4 -23 -23.5 -39t-41.5 -16h-166q-23 0 -36 16q-10 13 -10 29 q0 5 1 10zM475 788h297q127 0 202 44.5t97 152.5q6 31 6 57q0 76 -56 106t-165 30h-297z" />
<glyph unicode="S" horiz-adv-x="1325" d="M16 336q0 12 4 41q2 25 21.5 40t44.5 15h143q33 0 50.5 -12t23.5 -37q20 -68 78.5 -107.5t198.5 -39.5q135 0 234 43t118 129q2 8 2 26q0 41 -34 66.5t-93 44t-184 49.5l-107 27q-164 43 -242.5 125.5t-78.5 207.5q0 41 10 99q37 188 191.5 294.5t410.5 106.5 q156 0 270.5 -52t174 -133t59.5 -163q0 -18 -2 -29q-2 -24 -21.5 -39.5t-44.5 -15.5h-143q-33 0 -49.5 12.5t-24.5 36.5q-23 57 -81 92t-171 35q-111 0 -196.5 -46t-100.5 -120q-4 -29 -4 -37q0 -45 34 -73.5t105.5 -50t214.5 -54.5q385 -84 385 -346q0 -45 -8 -84 q-41 -195 -193.5 -301t-445.5 -106q-137 0 -264 45t-206 125.5t-79 185.5z" />
<glyph unicode="T" horiz-adv-x="1208" d="M174 1233l33 145q4 23 23.5 39.5t41.5 16.5h1014q23 0 36 -16q10 -13 10 -30q0 -5 -1 -10l-33 -145q-4 -23 -23.5 -39t-41.5 -16h-369l-239 -1123q-4 -23 -23.5 -39t-42.5 -16h-166q-23 0 -36 16.5t-9 38.5l240 1123h-369q-23 0 -36 16q-10 12 -10 29q0 5 1 10z" />
<glyph unicode="U" horiz-adv-x="1472" d="M119 414q0 49 14 125l180 839q4 23 23.5 39.5t42.5 16.5h166q23 0 36 -16.5t9 -39.5l-178 -829q-10 -43 -11 -96q0 -217 254 -217q145 0 245.5 75.5t133.5 237.5l178 829q4 23 23.5 39.5t42.5 16.5h164q22 0 36 -16q10 -13 10 -30q0 -5 -1 -10l-180 -839 q-55 -268 -217 -413.5t-469 -145.5q-152 0 -265.5 53t-175 151.5t-61.5 229.5z" />
<glyph unicode="V" horiz-adv-x="1359" d="M217 1358q-1 5 -1 9q0 23 18 43q22 24 51 24h141q47 0 57 -52l138 -976l550 976q29 51 78 52h176q23 0 34 -11.5t11 -29.5q0 -14 -10 -35l-727 -1288q-23 -37 -42 -53.5t-50 -16.5h-176q-31 0 -45 16.5t-19 53.5z" />
<glyph unicode="W" horiz-adv-x="1644" d="M219 70l12 1292q0 14 2 16q4 23 23.5 39.5t42.5 16.5h152q23 0 38 -13.5t15 -42.5l-8 -829l270 508q10 20 30.5 39.5t53.5 19.5h145q33 0 46.5 -19.5t13.5 -39.5l57 -516l344 837q12 29 31.5 42.5t42.5 13.5h164q23 0 36 -16q10 -13 10 -30q0 -5 -1 -10l-6 -16 l-533 -1292q-31 -70 -86 -70h-160q-53 0 -57 70l-61 579l-310 -579q-18 -35 -37.5 -52.5t-48.5 -17.5h-164q-31 0 -45 18q-12 16 -12 44v8z" />
<glyph unicode="X" horiz-adv-x="1366" d="M-92 45q0 14 14 33l627 674l-301 600q-6 12 -6 22q0 23 20.5 41.5t48.5 18.5h146q35 0 48 -13.5t27 -38.5l218 -428l395 428q43 51 96 52h205q20 0 32.5 -13.5t12.5 -31.5q0 -16 -12 -33l-607 -654l314 -616q6 -12 6 -23q0 -25 -21.5 -44t-46.5 -19h-145 q-33 0 -48.5 14.5t-27.5 36.5l-229 449l-416 -449q-2 -2 -15.5 -16.5t-35 -24.5t-45.5 -10h-207q-23 0 -35 13.5t-12 31.5z" />
<glyph unicode="Y" horiz-adv-x="1349" d="M213 1372q0 25 20.5 43.5t45.5 18.5h139q35 0 52 -16.5t24 -35.5l202 -571l447 571q20 27 39.5 39.5t56.5 12.5h182q21 0 34 -13.5t13 -31.5q0 -14 -10 -29l-670 -854l-96 -451q-4 -23 -23.5 -39t-41.5 -16h-162q-23 0 -36 16.5t-9 38.5l96 451l-301 848q-2 6 -2 18z" />
<glyph unicode="Z" horiz-adv-x="1296" d="M-37 55l31 146q8 33 47 71l895 906h-657q-23 0 -36.5 16t-9.5 39l33 145q4 23 23.5 39.5t42.5 16.5h985q23 0 36 -16q10 -13 10 -30q0 -5 -1 -10l-33 -145q-8 -35 -41 -68l-901 -909h700q23 0 36.5 -16.5t6.5 -38.5l-30 -146q-4 -23 -23.5 -39t-42.5 -16h-1026 q-23 0 -36 16q-10 13 -10 29q0 5 1 10z" />
<glyph unicode="[" horiz-adv-x="722" d="M-49 -270l385 1804q4 23 23.5 39t41.5 16h418q23 0 36 -16.5t9 -38.5l-28 -135q-4 -23 -24.5 -39.5t-43.5 -16.5h-207l-303 -1423h207q23 0 35 -16.5t8 -38.5l-29 -135q-4 -23 -23.5 -39.5t-41.5 -16.5h-418q-23 0 -36 16.5t-9 39.5z" />
<glyph unicode="\" horiz-adv-x="1054" d="M250 1546q-4 25 13.5 44.5t41.5 19.5h135q63 0 76 -62l334 -1657q4 -22 -12.5 -42.5t-40.5 -20.5h-129q-63 0 -78 61z" />
<glyph unicode="]" horiz-adv-x="720" d="M-131 -270l29 135q4 23 24.5 39t42.5 16h207l303 1423h-207q-23 0 -35 16.5t-8 39.5l29 135q4 23 23.5 39t41.5 16h418q23 0 36 -16.5t9 -38.5l-385 -1804q-4 -23 -23.5 -39.5t-41.5 -16.5h-418q-23 0 -36 16.5t-9 39.5z" />
<glyph unicode="^" horiz-adv-x="878" d="M242 1243q0 23 16 35l234 209q25 23 43 31t40 8h123q23 0 37.5 -8.5t30.5 -30.5l143 -209q4 -8 4 -18q0 -18 -11 -29.5t-28 -11.5h-63q-18 0 -29.5 4t-29.5 18l-131 96l-172 -96q-20 -12 -35 -17t-33 -5h-113q-27 0 -26 24z" />
<glyph unicode="_" horiz-adv-x="1509" d="M-39 -68l31 136q4 23 23.5 39t41.5 16h1198q23 0 36.5 -16.5t8.5 -38.5l-30 -136q-4 -23 -23.5 -39t-42.5 -16h-1198q-22 0 -35.5 16.5t-9.5 38.5z" />
<glyph unicode="`" horiz-adv-x="507" d="M61 1481q0 18 14.5 31.5t35.5 13.5h194q27 0 39 -6.5t29 -32.5l129 -209q6 -9 6 -21q0 -16 -12.5 -27t-28.5 -11h-113q-29 0 -44 8t-34 26l-202 201q-12 12 -13 27z" />
<glyph unicode="a" d="M55 393q0 39 6 78q20 102 31 143q53 205 190.5 338t346.5 133q115 0 193.5 -38.5t109.5 -83.5l10 47q4 23 23.5 39t42.5 16h155q23 -1 36 -17q10 -13 10 -28q0 -5 -1 -10l-202 -955q-4 -23 -23.5 -39t-42.5 -16h-156q-23 0 -36 16.5t-9 38.5l11 47q-47 -59 -117 -90.5 t-199 -31.5q-111 0 -196.5 56t-134 151.5t-48.5 205.5zM328 426q0 -102 53 -151.5t147 -49.5q102 0 182.5 60.5t114.5 169.5q10 35 20.5 81t12.5 74q2 12 2 35q0 90 -54 142.5t-147 52.5q-104 0 -185 -61.5t-120 -188.5q-18 -53 -24 -115q-2 -18 -2 -49z" />
<glyph unicode="b" d="M25 55l286 1344q4 23 23.5 39t42.5 16h155q23 0 36.5 -16.5t9.5 -38.5l-95 -436q63 55 133 88.5t183 33.5q111 0 196.5 -57t133 -152.5t47.5 -205.5q0 -39 -7 -80q-12 -83 -30 -144q-53 -205 -189.5 -335.5t-345.5 -130.5q-115 0 -192.5 37.5t-110.5 84.5l-10 -47 q-4 -23 -23.5 -39t-42.5 -16h-155q-22 0 -36 16q-10 12 -10 28q0 5 1 11zM375 416q0 -90 54 -140.5t146 -50.5q104 0 185.5 61.5t120.5 188.5q14 49 24 115q2 18 2 49q0 102 -53 151.5t-147 49.5q-101 0 -183 -62.5t-114 -167.5q-10 -35 -20.5 -81t-12.5 -74q-2 -14 -2 -39z " />
<glyph unicode="c" horiz-adv-x="1177" d="M53 391q0 20 4 58q10 76 35 165q59 209 205.5 340t384.5 131q145 0 245.5 -54t150.5 -133t50 -146q0 -16 -2 -23q-2 -23 -23.5 -39t-43.5 -16h-150q-20 0 -30.5 13t-24.5 42q-25 55 -68 83t-135 28q-94 0 -176 -58.5t-119 -177.5q-18 -61 -30 -143q-2 -14 -2 -39 q0 -100 55 -148.5t141 -48.5q92 0 143.5 27t100.5 84q25 27 42 41t38 14h157q25 0 38.5 -16.5t4.5 -38.5q-20 -76 -79.5 -156t-178 -140t-299.5 -60q-125 0 -224 55t-154.5 149.5t-55.5 206.5z" />
<glyph unicode="d" horiz-adv-x="1265" d="M57 393q0 41 6 80q20 102 31 143q53 205 189.5 337t345.5 132q115 0 193.5 -38.5t109.5 -83.5l94 436q4 23 23.5 39t42.5 16h155q23 0 36 -16q10 -13 10 -29q0 -5 -1 -10l-286 -1344q-4 -23 -23.5 -39t-42.5 -16h-156q-23 0 -36 16.5t-9 38.5l11 47q-47 -57 -117 -89.5 t-199 -32.5q-111 0 -196.5 56t-133 151.5t-47.5 205.5zM328 426q0 -102 53 -151.5t147 -49.5q102 0 182.5 60.5t114.5 169.5q10 35 20.5 81t12.5 74q2 12 2 35q0 90 -54 142.5t-147 52.5q-104 0 -185 -61.5t-120 -188.5q-18 -53 -24 -115q-2 -18 -2 -49z" />
<glyph unicode="e" horiz-adv-x="1165" d="M55 414q0 68 15 127q53 248 200.5 396t395.5 148q122 0 218.5 -55t151 -150.5t54.5 -211.5q0 -59 -11 -103l-18 -92q-6 -23 -25.5 -39t-42.5 -16h-684q-4 -29 -4 -39q0 -72 57.5 -113t141.5 -41q113 0 184 47q25 16 41 22.5t41 6.5h164q20 0 32.5 -12.5t12.5 -28.5 q0 -39 -59.5 -107.5t-174 -120.5t-274.5 -52q-115 0 -210 55t-150.5 153.5t-55.5 225.5zM358 651h463l2 29q0 160 -188 160q-106 0 -179 -57.5t-98 -131.5z" />
<glyph unicode="f" horiz-adv-x="876" d="M104 874l29 136q4 23 24.5 39t43.5 16h135l20 92q41 193 155 276t306 83h187q23 0 35 -16q9 -13 9 -29q0 -5 -1 -11l-29 -135q-4 -23 -24.5 -39t-43.5 -16h-145q-70 0 -121 -31t-68 -102l-14 -72h285q23 0 35 -16.5t8 -38.5l-29 -136q-4 -23 -23.5 -39t-41.5 -16h-285 l-164 -764q-4 -23 -23.5 -39t-41.5 -16h-156q-23 0 -36 16.5t-9 38.5l164 764h-135q-23 0 -36 17q-11 12 -11 28q0 5 1 10z" />
<glyph unicode="g" d="M-51 -150q0 16 2 25q2 23 22.5 39t42.5 16h140q25 0 41 -15t32 -40q23 -39 66 -59.5t133 -20.5q98 0 189.5 60.5t113.5 171.5l17 75q-45 -55 -116 -88.5t-200 -33.5q-111 0 -195.5 56t-132 150.5t-47.5 204.5q0 41 6 80q20 102 31 143q53 207 188.5 339t344.5 132 q115 0 193.5 -38.5t109.5 -83.5l10 47q4 23 24.5 39t43.5 16h155q23 0 35 -17q9 -12 9 -27q0 -5 -1 -11l-202 -961q-55 -254 -197.5 -377t-409.5 -123q-119 0 -222 43t-164.5 113t-61.5 145zM326 426q0 -102 53 -151.5t147 -49.5q102 0 182 60.5t115 169.5q10 35 20.5 81 t12.5 74q2 12 2 35q0 90 -54 142.5t-147 52.5q-104 0 -185 -61.5t-120 -188.5q-18 -53 -24 -115q-2 -18 -2 -49z" />
<glyph unicode="h" horiz-adv-x="1267" d="M25 55l286 1344q4 23 23.5 39t42.5 16h155q23 0 36.5 -16.5t9.5 -38.5l-95 -436q112 122 298 122h3q178 0 273.5 -101t95.5 -261q0 -55 -12 -117l-117 -551q-4 -22 -23.5 -38.5t-42.5 -16.5h-155q-23 0 -36 16.5t-9 38.5l110 520q10 55 11 89q0 86 -47.5 134t-139.5 48 q-106 0 -185 -74t-106 -197l-110 -520q-4 -23 -23.5 -39t-42.5 -16h-155q-22 0 -36 16q-10 12 -10 28q0 5 1 11z" />
<glyph unicode="i" horiz-adv-x="548" d="M25 55l202 955q4 23 24.5 39t43.5 16h156q23 0 35 -16.5t8 -38.5l-203 -955q-4 -22 -23.5 -38.5t-42.5 -16.5h-155q-22 0 -36 16q-10 12 -10 28q0 5 1 11zM266 1239l35 160q4 23 23.5 39t42.5 16h176q21 0 35 -16q10 -13 11 -29q0 -5 -1 -10l-35 -160q-4 -23 -24.5 -39 t-43.5 -16h-176q-23 0 -35 16q-9 12 -9 28q0 5 1 11z" />
<glyph unicode="j" horiz-adv-x="569" d="M-274 -334l28 135q4 23 24.5 39.5t43.5 16.5h31q74 0 118.5 34.5t59.5 98.5l217 1020q4 22 24.5 38.5t42.5 16.5h156q23 0 35 -16.5t8 -38.5l-219 -1030q-39 -182 -148.5 -275.5t-285.5 -93.5h-92q-23 0 -35 17q-9 11 -9 26q0 6 1 12zM287 1239l35 160q4 23 23.5 39 t41.5 16h176q23 0 36 -16q10 -13 10 -29q0 -5 -1 -10l-35 -160q-4 -23 -24.5 -39t-42.5 -16h-176q-23 0 -35 16q-9 13 -9 28q0 6 1 11z" />
<glyph unicode="k" horiz-adv-x="1175" d="M25 55l286 1344q4 23 23.5 39t42.5 16h155q23 0 36.5 -16.5t9.5 -38.5l-144 -672l416 303q45 35 88 35h240q20 -1 32 -15q9 -11 8 -24q0 -5 -1 -10q-4 -20 -31 -41l-570 -418l406 -469q16 -20 12 -39q-4 -20 -21.5 -34.5t-37.5 -14.5h-160q-49 0 -78 35l-364 407 l-82 -387q-4 -23 -23.5 -39t-42.5 -16h-155q-22 0 -36 16q-10 12 -10 28q0 5 1 11z" />
<glyph unicode="l" horiz-adv-x="550" d="M25 55l286 1344q4 23 23.5 39t42.5 16h155q22 0 36 -16q10 -13 11 -29q0 -5 -1 -10l-287 -1344q-4 -22 -23.5 -38.5t-42.5 -16.5h-155q-22 0 -36 16q-10 12 -10 28q0 5 1 11z" />
<glyph unicode="m" horiz-adv-x="1880" d="M25 55l202 955q4 23 24.5 39t43.5 16h156q23 0 35 -16.5t8 -38.5l-11 -47q56 59 120.5 90.5t150.5 31.5q109 0 196.5 -50t126.5 -124q76 86 161 130t187 44q170 0 256 -94t86 -248q0 -61 -16 -137l-117 -551q-4 -23 -23.5 -39t-41.5 -16h-156q-23 0 -36 16.5t-9 38.5 l115 541q12 55 12 96q0 82 -41 118t-121 36q-88 0 -155.5 -57.5t-98.5 -182.5l-116 -551q-4 -23 -23.5 -39t-42.5 -16h-156q-23 0 -36 16.5t-9 38.5l115 541q12 55 12 96q0 82 -41 118t-120 36q-90 0 -160 -60.5t-96 -189.5l-115 -541q-4 -23 -23.5 -39t-42.5 -16h-155 q-22 0 -36 16q-10 12 -10 28q0 5 1 11z" />
<glyph unicode="n" horiz-adv-x="1267" d="M25 55l202 955q4 23 24.5 39t43.5 16h156q23 0 35 -16.5t8 -38.5l-11 -47q116 122 298 122h3q178 0 273.5 -101t95.5 -261q0 -55 -12 -117l-117 -551q-4 -22 -23.5 -38.5t-42.5 -16.5h-155q-23 0 -36 16.5t-9 38.5l110 520q10 55 11 89q0 86 -47.5 134t-139.5 48 q-106 0 -185 -74t-106 -197l-110 -520q-4 -23 -23.5 -39t-42.5 -16h-155q-22 0 -36 16q-10 12 -10 28q0 5 1 11z" />
<glyph unicode="o" horiz-adv-x="1214" d="M53 383q0 18 4 55t17.5 98.5t25.5 108.5q59 203 202.5 321.5t385.5 118.5q125 0 226.5 -53t157.5 -144t56 -202q0 -20 -4 -61q-4 -37 -18 -103.5t-25 -103.5q-61 -207 -197 -322.5t-390 -115.5q-127 0 -227.5 53t-157 145t-56.5 205zM322 403q0 -96 57 -137t147 -41 q98 0 178 49.5t115 165.5q12 41 24.5 98.5t14.5 86.5q2 14 2 39q0 94 -57.5 135t-145.5 41q-98 0 -178 -49.5t-117 -165.5q-12 -41 -24 -98.5t-14 -86.5q-2 -12 -2 -37z" />
<glyph unicode="p" horiz-adv-x="1267" d="M-57 -334l286 1344q4 23 23.5 39t42.5 16h156q23 0 36 -16.5t9 -38.5l-11 -47q57 55 126 88.5t190 33.5q111 0 196.5 -57t134 -153.5t48.5 -208.5q0 -37 -6 -78q-20 -102 -31 -144q-53 -205 -190.5 -334.5t-346.5 -129.5q-115 0 -193.5 38.5t-109.5 83.5l-94 -436 q-4 -23 -23.5 -39t-42.5 -16h-155q-23 0 -36 17q-10 12 -10 28q0 5 1 10zM375 420q0 -90 54 -142.5t146 -52.5q104 0 185.5 61.5t120.5 188.5q18 53 24 115q2 18 2 49q0 102 -53 151.5t-147 49.5q-102 0 -182.5 -60.5t-114.5 -169.5q-10 -35 -20.5 -81t-12.5 -74 q-2 -12 -2 -35z" />
<glyph unicode="q" d="M57 395q0 41 6 80q13 82 31 143q53 205 189.5 336t345.5 131q115 0 192.5 -37.5t110.5 -84.5l10 47q4 23 23.5 39t42.5 16h155q23 0 36 -17q10 -12 10 -28q0 -5 -1 -10l-286 -1344q-4 -23 -23.5 -39t-42.5 -16h-156q-23 0 -36 16.5t-9 38.5l95 436q-63 -55 -133 -88.5 t-183 -33.5q-111 0 -196.5 57t-133 152.5t-47.5 205.5zM326 426q0 -102 53 -151.5t147 -49.5q101 0 183 62.5t114 167.5q10 35 20.5 81t12.5 74q2 14 2 39q0 90 -54 140.5t-147 50.5q-104 0 -185 -61.5t-120 -188.5q-14 -49 -24 -115q-2 -18 -2 -49z" />
<glyph unicode="r" horiz-adv-x="856" d="M25 55l202 955q4 23 24.5 39t43.5 16h156q23 0 35 -16.5t8 -38.5l-11 -47q55 55 107.5 78.5t146.5 23.5h133q24 -1 36 -17q9 -12 8 -26q0 -6 -1 -12l-28 -136q-4 -23 -23.5 -39t-42.5 -16h-133q-123 0 -188.5 -54t-91.5 -177l-115 -533q-4 -23 -23.5 -39t-42.5 -16h-155 q-22 0 -36 16q-10 12 -10 28q0 5 1 11z" />
<glyph unicode="s" horiz-adv-x="1062" d="M6 264q2 23 22.5 39t45.5 16h157q23 0 35.5 -8t24.5 -24q25 -29 55.5 -45.5t104.5 -16.5q82 0 144 22.5t62 71.5q0 31 -36.5 44.5t-165.5 44.5q-20 4 -42 9t-42 9q-131 31 -188.5 96.5t-57.5 159.5q0 39 10 94q29 137 140.5 223t326.5 86q119 0 208 -36.5t138 -98.5 q53 -67 53 -133q-1 -21 -21 -35q-22 -16 -46 -16h-158q-23 0 -36 7t-27 22q-20 20 -49 32.5t-93 12.5q-74 0 -125 -24.5t-51 -76.5q0 -23 22.5 -38t86 -31.5t155.5 -36.5q266 -59 267 -266q0 -43 -8 -82q-29 -135 -150 -220t-350 -85q-127 0 -222.5 40.5t-144.5 107.5 q-45 62 -45 126v10z" />
<glyph unicode="t" horiz-adv-x="886" d="M92 874l29 136q4 23 24.5 39t42.5 16h136l71 334q4 23 23.5 39t42.5 16h155q23 0 36.5 -16.5t9.5 -38.5l-72 -334h264q23 -1 35 -17q9 -12 9 -27q0 -5 -1 -11l-29 -136q-4 -23 -23.5 -39t-41.5 -16h-264l-95 -434q-6 -30 -6 -55q0 -41 21.5 -62.5t75.5 -21.5h165 q23 0 35.5 -16.5t7.5 -39.5l-28 -135q-4 -23 -23.5 -39t-42.5 -16h-131q-164 0 -257 75t-93 210q0 53 10 94l94 440h-135q-23 1 -36 17q-10 13 -10 28q0 5 1 10z" />
<glyph unicode="u" horiz-adv-x="1247" d="M84 338q0 59 12 121l117 551q4 22 24.5 38.5t43.5 16.5h155q23 0 35 -16.5t8 -38.5l-110 -521q-12 -51 -13 -96q0 -174 179 -174q106 0 179.5 73t100.5 197l111 521q4 23 24.5 39t42.5 16h156q23 -1 35 -17q9 -12 9 -27q0 -5 -1 -11l-203 -955q-4 -23 -23.5 -39 t-41.5 -16h-156q-23 0 -36 16.5t-9 38.5l10 47q-49 -61 -115.5 -91.5t-175.5 -30.5q-176 0 -267 99t-91 259z" />
<glyph unicode="v" horiz-adv-x="1210" d="M139 987q-2 8 -2 16q-1 21 15 39q22 24 53 23h139q49 0 57 -49l142 -627l403 627q31 49 78 49h176q20 0 33.5 -13.5t13.5 -31.5q0 -8 -8 -25l-612 -944q-16 -25 -34 -38t-44 -13h-143q-29 0 -40.5 13.5t-17.5 37.5z" />
<glyph unicode="w" horiz-adv-x="1701" d="M145 995q-2 27 18.5 48.5t49.5 21.5h141q27 0 36 -12.5t11 -34.5l68 -576l319 574q10 20 29 34.5t39 14.5h148q20 0 32.5 -15.5t14.5 -33.5l77 -553l304 553q27 49 67 49h184q18 0 30.5 -14.5t12.5 -32.5q0 -12 -6 -25l-514 -942q-14 -25 -29.5 -38t-39.5 -13h-152 q-25 0 -35 14.5t-14 36.5l-86 567l-330 -567q-12 -25 -28.5 -38t-40.5 -13h-146q-45 0 -49 51z" />
<glyph unicode="x" horiz-adv-x="1183" d="M-76 47q0 25 15 39l479 473l-244 416q-6 10 -6 22q0 25 19.5 46.5t48.5 21.5h124q29 0 49.5 -8t32.5 -31l166 -287l291 287q23 23 46.5 31t51.5 8h185q20 0 31.5 -13.5t11.5 -31.5q0 -25 -17 -41l-471 -461l252 -432q6 -12 6 -23q0 -25 -20.5 -44t-46.5 -19h-127 q-29 0 -49.5 8t-32.5 31l-172 297l-301 -297q-25 -23 -47.5 -31t-51.5 -8h-182q-20 0 -30.5 13.5t-10.5 33.5z" />
<glyph unicode="y" horiz-adv-x="1202" d="M80 -344q0 12 6 25l258 399l-201 915q-6 27 15.5 48.5t48.5 21.5h145q47 0 58 -49l135 -625l403 625q10 18 33 33.5t45 15.5h170h4q16 0 28 -13q13 -14 13 -32q0 -14 -8 -29l-862 -1337q-12 -18 -32 -30.5t-42 -12.5h-172q-18 0 -31.5 13.5t-13.5 31.5z" />
<glyph unicode="z" horiz-adv-x="1103" d="M-31 55l31 140q10 39 43 69l612 555h-446q-23 0 -36 16.5t-9 38.5l29 136q4 23 24.5 39t42.5 16h770q23 -1 35 -17q9 -12 9 -27q0 -5 -1 -11l-29 -140q-2 -18 -14 -37.5t-29 -31.5l-612 -555h508q23 0 35 -16.5t8 -39.5l-29 -135q-4 -23 -23.5 -39t-41.5 -16h-832 q-23 0 -36 16q-10 13 -10 29q0 5 1 10z" />
<glyph unicode="{" horiz-adv-x="808" d="M6 578l23 106q12 49 75 76l39 14q63 25 106.5 90.5t63.5 163.5q59 283 199.5 422t392.5 139q23 0 36 -16.5t9 -38.5l-28 -135q-6 -23 -25.5 -39.5t-42.5 -16.5q-88 0 -169 -100t-120 -282q-27 -133 -86 -208t-137 -122q45 -35 71.5 -84t26.5 -127q0 -55 -14 -119 q-20 -88 -20 -168q0 -98 36.5 -153.5t108.5 -59.5q25 -2 37 -17.5t6 -37.5l-29 -135q-4 -23 -23.5 -39.5t-41.5 -16.5q-94 0 -178 54.5t-135.5 155t-51.5 233.5q0 49 10 116q10 66 11 105q0 119 -74 149l-31 15q-55 27 -45 76z" />
<glyph unicode="|" horiz-adv-x="544" d="M-68 -371l457 2151q4 23 24.5 39t43.5 16h155q23 0 35 -16.5t8 -38.5l-456 -2151q-4 -22 -24.5 -38.5t-43.5 -16.5h-156q-23 0 -35 16.5t-8 38.5z" />
<glyph unicode="}" horiz-adv-x="808" d="M-131 -270l29 135q6 23 25.5 39t41.5 16q88 0 169 100.5t120 282.5q27 133 86 208t137 122q-45 35 -71.5 84t-26.5 127q0 55 14 119q20 88 21 167q0 98 -37 153.5t-109 59.5q-25 2 -37 17.5t-6 38.5l29 135q4 22 23.5 38.5t41.5 16.5q94 0 178.5 -54t135.5 -154.5 t51 -233.5q0 -49 -10 -117q-10 -66 -10 -104q0 -119 73 -150l31 -14q55 -27 45 -76l-22 -106q-12 -49 -76 -76l-39 -15q-63 -25 -106.5 -90t-63.5 -163q-59 -283 -199.5 -422.5t-392.5 -139.5q-23 0 -36 16.5t-9 39.5z" />
<glyph unicode="~" horiz-adv-x="1140" d="M117 502q0 23 4 37l18 82q14 68 81 115.5t140 47.5q68 0 113 -10t109 -33q51 -20 96 -31.5t108 -11.5q43 0 92.5 18.5t77.5 35.5q25 16 48 16q27 0 26 -37q0 -23 -4 -37l-18 -82q-14 -68 -81 -115.5t-141 -47.5q-68 0 -112.5 10t-108.5 33q-51 20 -96 31.5t-109 11.5 q-43 0 -92 -18.5t-78 -35.5q-25 -16 -47 -16q-27 0 -26 37z" />
<glyph unicode="&#xa1;" horiz-adv-x="534" d="M-61 -311l194 909q4 23 24.5 39t43.5 16h155q23 0 35 -16t8 -39l-194 -909q-4 -23 -23.5 -39.5t-42.5 -16.5h-155q-23 0 -36.5 16.5t-8.5 39.5zM172 831l39 181q4 23 23.5 39t41.5 16h177q23 0 36 -16.5t9 -38.5l-39 -181q-4 -23 -24.5 -39t-43.5 -16h-176 q-22 0 -34.5 16.5t-8.5 38.5z" />
<glyph unicode="&#xa2;" horiz-adv-x="1191" d="M61 391q0 16 5 58q10 76 34 165q51 178 168 303t301 158l27 119q6 23 25.5 39t42.5 16h155q23 0 36 -16t7 -39l-26 -127q98 -25 165.5 -79t101.5 -118.5t34 -117.5l-2 -23q-2 -23 -23.5 -39t-44.5 -16h-149q-20 0 -30.5 13t-25.5 42q-25 55 -67.5 83t-135.5 28 q-94 0 -176 -58.5t-118 -177.5q-18 -61 -31 -143q-2 -14 -2 -39q0 -100 55 -148.5t141 -48.5q92 0 143.5 27t100.5 84q25 27 42 41t38 14h158q25 0 38 -16.5t5 -38.5q-31 -111 -137.5 -216.5t-309.5 -131.5l-28 -138q-4 -23 -25 -39t-43 -16h-156q-23 0 -35 16.5t-8 38.5 l31 152q-129 43 -205 148.5t-76 240.5z" />
<glyph unicode="&#xa3;" horiz-adv-x="1466" d="M-31 45q25 111 101.5 208t193.5 130q16 92 25 221h-146q-20 0 -29.5 12.5t-4.5 32.5l24 115q4 20 18.5 32.5t34.5 12.5h117q47 301 207 473t446 172q148 0 255.5 -60.5t164 -157.5t56.5 -202q0 -33 -7 -63q-2 -18 -18 -31.5t-35 -13.5h-186q-16 0 -26.5 13t-10.5 32 q8 227 -225 227q-133 0 -229.5 -102.5t-114.5 -286.5h387q20 0 30.5 -12.5t6.5 -32.5l-25 -115q-4 -20 -19.5 -32.5t-35.5 -12.5h-359q-2 -94 -18 -190q70 -14 115 -42t94 -73q41 -35 65.5 -50.5t59.5 -15.5q53 0 94 31t78 90q12 20 29.5 32.5t33.5 12.5h180q18 0 28.5 -13 t6.5 -32q-20 -96 -77.5 -182t-156 -140.5t-231.5 -54.5q-106 0 -171.5 32t-133.5 87q-45 37 -73.5 53.5t-65.5 16.5q-53 0 -94 -31t-80 -90q-29 -45 -62 -45h-180q-18 0 -29.5 13.5t-7.5 31.5z" />
<glyph unicode="&#xa4;" horiz-adv-x="1230" d="M39 258q0 31 24 49l103 86q-29 70 -29 144q0 37 10 88q27 137 113 247l-63 82q-10 14 -11 29q0 29 27 49l86 74q23 16 43 16q25 0 37 -16l61 -82q119 61 256 61q117 0 224 -69l110 92q23 16 43 16q25 0 37 -16l80 -107q8 -10 8 -26q0 -31 -27 -51l-106 -88 q29 -70 29 -150q0 -45 -9 -84q-31 -143 -110 -250l61 -80q8 -10 8 -26q0 -29 -24 -51l-86 -74q-16 -14 -43 -15q-23 0 -35 15l-63 80q-115 -57 -256 -58q-125 0 -224 70l-108 -90q-16 -14 -41 -14q-23 0 -37 14l-80 106q-8 10 -8 29zM381 567q0 -80 52 -132t134 -52 q72 0 137.5 39t106.5 103.5t41 136.5q0 80 -52 132t-134 52q-72 0 -137.5 -39t-106.5 -103.5t-41 -136.5z" />
<glyph unicode="&#xa5;" horiz-adv-x="1380" d="M123 297l16 74q4 20 19.5 32.5t36.5 12.5h315l12 61h-315q-20 0 -29.5 12.5t-5.5 32.5l14 74q4 20 19.5 32.5t36.5 12.5h245l-262 713q-2 6 -2 18q0 25 20.5 43.5t45.5 18.5h131q35 0 52 -16.5t24 -35.5l209 -571l456 571q20 27 40 39.5t56 12.5h177q20 0 33.5 -13.5 t13.5 -31.5q0 -14 -11 -29l-575 -719h248q20 0 29.5 -12.5t5.5 -32.5l-15 -74q-4 -20 -19.5 -32.5t-35.5 -12.5h-313l-15 -61h316q20 0 29.5 -12.5t4.5 -32.5l-16 -74q-2 -20 -17.5 -32.5t-35.5 -12.5h-316l-40 -197q-4 -23 -23.5 -39t-42.5 -16h-162q-23 0 -36 16.5 t-9 38.5l41 197h-313q-20 0 -30.5 12t-6.5 33z" />
<glyph unicode="&#xa6;" horiz-adv-x="555" d="M27 55l131 615q4 23 24.5 39t42.5 16h156q23 0 35 -16.5t8 -38.5l-131 -615q-4 -22 -23.5 -38.5t-42.5 -16.5h-155q-23 0 -36 16.5t-9 38.5zM233 1028l132 614q4 23 24.5 39.5t42.5 16.5h156q23 0 35 -16.5t8 -39.5l-131 -614q-4 -22 -24.5 -38.5t-43.5 -16.5h-156 q-23 0 -35 16.5t-8 38.5z" />
<glyph unicode="&#xa7;" horiz-adv-x="1226" d="M10 -8l2 18q2 25 22.5 40.5t41.5 15.5h157q23 0 35.5 -9.5t28.5 -29.5q23 -33 55.5 -50.5t102.5 -17.5q76 0 133 32t69 87q2 6 2 16q0 45 -58 79t-200 77q-168 51 -249.5 130t-81.5 193q0 37 10 84q20 96 72.5 155.5t142.5 113.5q-12 35 -12 75q0 33 10 80 q37 178 167 275.5t333 97.5q137 0 234 -50t142 -120t37 -127q-4 -25 -24.5 -40t-40.5 -15h-158q-23 0 -35 9t-28 30q-23 33 -56 50t-102 17q-76 0 -132.5 -31.5t-68.5 -86.5q-2 -6 -2 -19q0 -45 58.5 -79t197.5 -74q170 -51 251 -131t81 -195q0 -43 -8 -82 q-20 -98 -73.5 -157.5t-145.5 -112.5q12 -37 12 -80q0 -39 -8 -74q-37 -178 -167 -275.5t-333 -97.5q-131 0 -225.5 45t-141.5 110.5t-47 123.5zM342 643q-6 -35 25.5 -62.5t84 -49t175.5 -66.5q70 -26 129 -55q57 25 83.5 52t34.5 62t-23.5 62.5t-84.5 50t-176 65.5 q-70 25 -129 56q-55 -25 -83 -52.5t-36 -62.5z" />
<glyph unicode="&#xa8;" horiz-adv-x="806" d="M63 1274l37 180q4 23 24.5 39t43.5 16h170q22 0 34.5 -16t8.5 -39l-37 -180q-4 -23 -24.5 -39t-43.5 -16h-170q-23 0 -35 16t-8 39zM487 1274l37 180q4 23 24.5 39t43.5 16h170q22 0 34.5 -16t8.5 -39l-37 -180q-4 -23 -24.5 -39t-43.5 -16h-170q-23 0 -35 16t-8 39z" />
<glyph unicode="&#xa9;" horiz-adv-x="1665" d="M106 588q0 68 17 149q43 203 168 367t307 257t393 93q174 0 314.5 -81t220.5 -220t80 -309q0 -66 -17 -148q-43 -203 -168 -366.5t-308 -256.5t-394 -93q-174 0 -314.5 80.5t-219.5 220t-79 307.5zM279 592q0 -129 56 -230.5t159.5 -160t238.5 -58.5q156 0 301.5 77 t248.5 209t136 288q14 76 15 125q0 127 -57.5 229.5t-161 160.5t-238.5 58q-156 0 -301.5 -76.5t-247.5 -208t-135 -288.5q-14 -76 -14 -125zM475 592q0 27 6 57q10 61 29 139q82 326 397 326q90 0 163 -37t114 -92t41 -104q0 -29 -16.5 -47.5t-41.5 -18.5h-120 q-18 0 -26.5 9.5t-11.5 19.5t-5 14q-16 39 -47 51.5t-70 12.5q-129 0 -164 -134q-20 -78 -29 -139q-4 -25 -4 -37q0 -96 111 -96q39 0 73.5 12.5t69.5 51.5q16 20 28.5 31.5t33.5 11.5h120q20 0 29.5 -12.5t5.5 -32.5q-12 -55 -57 -113.5t-127 -99.5t-197 -41 q-131 0 -218 74.5t-87 193.5z" />
<glyph unicode="&#xaa;" horiz-adv-x="733" d="M168 1014q0 82 78 140t205 77l124 18q4 23 -9 43.5t-52 20.5q-33 0 -70 -23q-6 -2 -24.5 -10t-34.5 -8h-76q-39 0 -39 22q0 20 29 56t85 65t136 29q104 0 168 -44t64 -126q0 -29 -4 -45l-64 -295q-2 -20 -17.5 -32.5t-35.5 -12.5h-82q-20 0 -30.5 12t-6.5 33l4 14 q-23 -29 -77 -49t-109 -20q-76 0 -119 39.5t-43 95.5zM358 1038q0 -29 48 -28q53 0 94 37.5t51 82.5l-94 -14q-86 -14 -97 -65q-2 -4 -2 -13z" />
<glyph unicode="&#xab;" horiz-adv-x="1271" d="M86 608l29 135q8 31 41 58l487 391q10 10 29 10q18 0 29.5 -13t7.5 -32l-50 -221q-8 -35 -19 -53.5t-36 -38.5l-254 -205l168 -205q20 -27 21 -55q0 -23 -4 -37l-31 -147q-4 -20 -20.5 -32.5t-32.5 -12.5q-18 0 -31 14l-318 387q-23 25 -16 57zM641 608l29 135 q8 31 41 58l487 391q10 10 29 10q18 0 29.5 -13t7.5 -32l-50 -221q-8 -35 -19 -53.5t-36 -38.5l-254 -205l168 -205q20 -27 21 -55q0 -23 -4 -37l-31 -147q-4 -20 -20.5 -32.5t-32.5 -12.5q-18 0 -31 14l-318 387q-23 25 -16 57z" />
<glyph unicode="&#xac;" horiz-adv-x="1175" d="M100 526l29 136q4 23 24.5 39t43.5 16h809q23 0 35 -16.5t8 -38.5l-82 -390q-4 -22 -24.5 -38.5t-43.5 -16.5h-156q-23 0 -35 16.5t-8 38.5l41 199h-598q-23 0 -35 16.5t-8 38.5z" />
<glyph unicode="&#xad;" horiz-adv-x="991" d="M115 547l28 135q4 23 24.5 39t43.5 16h625q23 0 35 -16t8 -39l-29 -135q-4 -23 -23.5 -39t-42.5 -16h-624q-23 0 -36 16t-9 39z" />
<glyph unicode="&#xae;" horiz-adv-x="1665" d="M106 588q0 68 17 149q43 203 168 367t307 257t393 93q174 0 314.5 -81t220.5 -220t80 -309q0 -66 -17 -148q-43 -203 -168 -366.5t-308 -256.5t-394 -93q-174 0 -314.5 80.5t-219.5 220t-79 307.5zM279 592q0 -129 56 -230.5t159.5 -160t238.5 -58.5q156 0 301.5 77 t248.5 209t136 288q14 76 15 125q0 127 -57.5 229.5t-161 160.5t-238.5 58q-156 0 -301.5 -76.5t-247.5 -208t-135 -288.5q-14 -76 -14 -125zM477 389l139 660q4 20 19.5 32.5t36.5 12.5h264q135 0 205.5 -54.5t70.5 -142.5q0 -27 -6 -51q-14 -68 -56 -127.5t-108 -93.5 l70 -207q2 -4 2 -19q0 -20 -15.5 -37.5t-39.5 -17.5h-113q-39 0 -51 39l-57 195h-109l-39 -189q-4 -20 -19.5 -32.5t-35.5 -12.5h-123q-20 0 -29.5 12.5t-5.5 32.5zM772 772h121q86 0 100 74q2 8 2 24q0 49 -71 50h-121z" />
<glyph unicode="&#xaf;" horiz-adv-x="735" d="M63 1274l29 135q4 23 23.5 39t42.5 16h530q23 0 36 -16t9 -39l-28 -135q-4 -23 -25 -39t-43 -16h-531q-22 0 -34.5 16t-8.5 39z" />
<glyph unicode="&#xb0;" horiz-adv-x="831" d="M178 1063q0 31 6 61q31 143 143.5 236.5t266.5 93.5q74 0 137.5 -35t101 -95t37.5 -136q0 -29 -6 -64q-29 -143 -142.5 -236t-266.5 -93q-74 0 -137.5 34.5t-101.5 95t-38 138.5zM365 1087q0 -55 33.5 -86.5t93.5 -31.5q57 0 116.5 45t71.5 110q4 29 4 39q0 53 -35 85 t-92 32q-41 0 -86 -25.5t-75.5 -69.5t-30.5 -98z" />
<glyph unicode="&#xb1;" horiz-adv-x="1140" d="M25 55l28 135q4 23 24.5 39.5t43.5 16.5h751q23 0 35.5 -16.5t7.5 -39.5l-28 -135q-4 -23 -23.5 -39t-42.5 -16h-751q-23 0 -36.5 16.5t-8.5 38.5zM133 754l29 135q4 23 23.5 39t41.5 16h285l61 289q4 23 24.5 39t43.5 16h156q23 0 35 -16.5t8 -38.5l-62 -289h283 q23 0 36 -16.5t9 -38.5l-29 -135q-4 -23 -24.5 -39.5t-42.5 -16.5h-283l-61 -290q-4 -23 -24.5 -39.5t-43.5 -16.5h-156q-23 0 -35 16.5t-8 39.5l62 290h-285q-23 0 -35 16.5t-8 39.5z" />
<glyph unicode="&#xb2;" horiz-adv-x="716" d="M90 762l10 61q15 51 62 80q74 47 196 123q109 66 147.5 96.5t45.5 67.5q4 16 4 25q0 25 -14.5 39t-47.5 14q-35 0 -56.5 -14.5t-37.5 -38.5q-14 -20 -25.5 -24.5t-31.5 -4.5h-107q-39 0 -28 39q25 88 104.5 153.5t198.5 65.5q115 0 180 -57.5t65 -145.5q0 -23 -6 -47 q-14 -68 -37.5 -110t-79 -82.5t-169.5 -108.5h208q20 0 29.5 -12.5t5.5 -32.5l-18 -86q-4 -20 -19.5 -32.5t-35.5 -12.5h-510q-20 0 -28.5 12t-4.5 33z" />
<glyph unicode="&#xb3;" horiz-adv-x="718" d="M104 889q0 23 14.5 36t28.5 13h119q10 0 18.5 -6t12.5 -11.5t6 -7.5q14 -18 35.5 -24t64.5 -6q47 0 77 21.5t30 56.5q0 23 -18.5 32t-59.5 9h-94q-20 0 -29.5 12t-5.5 33l8 47q4 23 33 47l162 117h-236q-20 0 -29.5 12t-5.5 33l19 86q4 20 19 32.5t36 12.5h442 q20 0 29.5 -12.5t5.5 -32.5l-18 -84q-4 -27 -12.5 -38.5t-34.5 -29.5l-134 -90q72 -18 108 -64.5t36 -107.5q0 -72 -42 -133.5t-120 -98t-180 -36.5q-90 0 -154.5 29.5t-97.5 72.5t-33 80z" />
<glyph unicode="&#xb4;" horiz-adv-x="610" d="M63 1243q0 18 17 35l219 209q27 24 43 31.5t41 7.5h195q16 0 24 -9.5t8 -21.5q0 -23 -18 -35l-295 -207q-25 -18 -45.5 -26t-48.5 -8h-113q-27 0 -27 24z" />
<glyph unicode="&#xb5;" horiz-adv-x="1265" d="M-70 -354l289 1364q4 23 24.5 39t43.5 16h155q23 0 35 -16.5t8 -38.5l-110 -521q-8 -35 -8 -77q0 -88 48 -140.5t136 -52.5q106 0 186 75t105 195l110 521q4 23 24.5 39t43.5 16h156q23 0 35 -16.5t8 -38.5l-203 -955q-4 -23 -23.5 -39t-42.5 -16h-155q-23 0 -36.5 16.5 t-8.5 38.5l10 47q-55 -63 -108.5 -92.5t-131.5 -29.5q-82 0 -141.5 31.5t-85.5 90.5l-96 -456q-4 -23 -24.5 -39.5t-43.5 -16.5h-156q-23 0 -35 16.5t-8 39.5z" />
<glyph unicode="&#xb6;" horiz-adv-x="1150" d="M145 971q0 45 9 80q20 104 90.5 192t169 139.5t202.5 51.5h508q23 0 36.5 -16.5t8.5 -39.5l-325 -1528q-4 -23 -24.5 -39t-43.5 -16h-90q-23 0 -35 16.5t-8 38.5l293 1383h-162l-293 -1383q-4 -23 -24.5 -39t-42.5 -16h-90q-23 0 -35.5 16.5t-7.5 38.5l174 818 q-137 0 -223.5 86t-86.5 217z" />
<glyph unicode="&#xb7;" horiz-adv-x="675" d="M86 563q0 76 44 144.5t114.5 110.5t146.5 42q86 0 142.5 -55t56.5 -139q0 -76 -44 -144.5t-114 -110.5t-145 -42q-88 0 -144.5 55t-56.5 139z" />
<glyph unicode="&#xb8;" horiz-adv-x="520" d="M63 -371q0 12 15 25l33 27q20 14 32 14q8 0 32 -15.5t63 -15.5q41 0 66.5 21.5t25.5 60.5q0 45 -66 45q-18 0 -46 -10t-40 -10q-16 0 -26 12l-25 37q-10 16 -10 24q0 14 20 43l113 168h125l-115 -170q37 20 76 21q55 0 89 -39t34 -96q0 -23 -6 -47q-16 -80 -70.5 -127.5 t-149.5 -47.5q-59 0 -114.5 26t-55.5 54z" />
<glyph unicode="&#xb9;" horiz-adv-x="536" d="M147 1196q0 27 29 45l276 178q23 14 52 15h77q20 0 29.5 -12.5t5.5 -32.5l-133 -627q-4 -21 -19.5 -33t-35.5 -12h-107q-20 0 -29.5 12t-5.5 33l82 385l-102 -66q-10 -8 -29 -8q-20 0 -32 19l-52 86q-6 10 -6 18z" />
<glyph unicode="&#xba;" horiz-adv-x="714" d="M190 1071q0 23 3 35q4 23 11 55.5t13 55.5q29 111 104.5 169t188.5 58q96 0 169 -52.5t73 -142.5q0 -23 -2 -32q-4 -23 -11.5 -56t-13.5 -55q-59 -227 -293 -227q-102 0 -172 51t-70 141zM379 1083q0 -33 15.5 -47t47.5 -14q41 0 62.5 21.5t36.5 72.5q16 57 20 90 q2 10 2 29q0 66 -63 65q-41 0 -63.5 -23.5t-35.5 -70.5q-16 -57 -20 -90q-2 -12 -2 -33z" />
<glyph unicode="&#xbb;" horiz-adv-x="1271" d="M37 193l49 221q8 35 19.5 53t35.5 39l254 205l-168 204q-20 27 -20 56q0 23 4 37l31 147q4 20 20.5 32.5t32.5 12.5q18 0 31 -14l317 -387q23 -25 16 -58l-28 -135q-8 -30 -41 -57l-488 -391q-10 -10 -28 -11q-18 0 -29.5 13.5t-7.5 32.5zM592 193l49 221q8 35 19.5 53 t35.5 39l254 205l-168 204q-20 27 -20 56q0 23 4 37l31 147q4 20 20.5 32.5t32.5 12.5q18 0 31 -14l317 -387q23 -25 16 -58l-28 -135q-8 -30 -41 -57l-488 -391q-10 -10 -28 -11q-18 0 -29.5 13.5t-7.5 32.5z" />
<glyph unicode="&#xbc;" horiz-adv-x="1617" d="M55 33q0 16 14 30l1295 1332q20 20 37.5 29.5t44.5 9.5h125q20 0 31.5 -9.5t11.5 -23.5q0 -16 -15 -31l-1294 -1331q-20 -20 -37.5 -29.5t-44.5 -9.5h-125q-20 0 -31.5 9t-11.5 24zM184 1196q0 27 29 45l276 178q23 14 52 15h77q20 0 29.5 -12.5t5.5 -32.5l-133 -627 q-4 -21 -19.5 -33t-35.5 -12h-107q-20 0 -29.5 12t-5.5 33l82 385l-102 -66q-10 -8 -29 -8q-20 0 -32 19l-52 86q-6 10 -6 18zM774 162l18 88q10 33 39 61l353 369q35 37 69 37h154q20 0 29.5 -12.5t5.5 -32.5l-80 -379h71q20 0 29.5 -12.5t5.5 -32.5l-18 -86 q-4 -20 -19.5 -32.5t-35.5 -12.5h-72l-14 -72q-4 -20 -19.5 -32.5t-36.5 -12.5h-106q-20 0 -29.5 12t-5.5 33l14 72h-317q-20 0 -29.5 12t-5.5 33zM1024 293h141l41 192z" />
<glyph unicode="&#xbd;" horiz-adv-x="1630" d="M55 33q0 16 14 30l1295 1332q20 20 37.5 29.5t44.5 9.5h125q20 0 31.5 -9.5t11.5 -23.5q0 -16 -15 -31l-1294 -1331q-20 -20 -37.5 -29.5t-44.5 -9.5h-125q-20 0 -31.5 9t-11.5 24zM184 1196q0 27 29 45l276 178q23 14 52 15h77q20 0 29.5 -12.5t5.5 -32.5l-133 -627 q-4 -21 -19.5 -33t-35.5 -12h-107q-20 0 -29.5 12t-5.5 33l82 385l-102 -66q-10 -8 -29 -8q-20 0 -32 19l-52 86q-6 10 -6 18zM834 45l10 61q15 51 62 80q74 47 196 123q109 66 147.5 96.5t45.5 67.5q4 16 4 25q0 25 -14.5 39t-47.5 14q-35 0 -56.5 -14.5t-37.5 -38.5 q-14 -20 -25.5 -24.5t-31.5 -4.5h-107q-39 0 -28 39q25 88 104.5 153.5t198.5 65.5q115 0 180 -57.5t65 -145.5q0 -23 -6 -47q-14 -68 -37.5 -110t-79 -82.5t-169.5 -108.5h208q20 0 29.5 -12.5t5.5 -32.5l-18 -86q-4 -20 -19.5 -32.5t-35.5 -12.5h-510q-20 0 -28.5 12 t-4.5 33z" />
<glyph unicode="&#xbe;" horiz-adv-x="1665" d="M108 33q0 16 14 30l1295 1332q20 20 37.5 29.5t44.5 9.5h125q20 0 31.5 -9.5t11.5 -23.5q0 -16 -15 -31l-1294 -1331q-20 -20 -37.5 -29.5t-44.5 -9.5h-125q-20 0 -31.5 9t-11.5 24zM127 889q0 23 14.5 36t28.5 13h119q10 0 18.5 -6t12.5 -11.5t6 -7.5q14 -18 35.5 -24 t64.5 -6q47 0 77 21.5t30 56.5q0 23 -18.5 32t-59.5 9h-94q-20 0 -29.5 12t-5.5 33l8 47q4 23 33 47l162 117h-236q-20 0 -29.5 12t-5.5 33l19 86q4 20 19 32.5t36 12.5h442q20 0 29.5 -12.5t5.5 -32.5l-18 -84q-4 -27 -12.5 -38.5t-34.5 -29.5l-134 -90q72 -18 108 -64.5 t36 -107.5q0 -72 -42 -133.5t-120 -98t-180 -36.5q-90 0 -154.5 29.5t-97.5 72.5t-33 80zM827 162l18 88q10 33 39 61l353 369q35 37 69 37h154q20 0 29.5 -12.5t5.5 -32.5l-80 -379h71q20 0 29.5 -12.5t5.5 -32.5l-18 -86q-4 -20 -19.5 -32.5t-35.5 -12.5h-72l-14 -72 q-4 -20 -19.5 -32.5t-36.5 -12.5h-106q-20 0 -29.5 12t-5.5 33l14 72h-317q-20 0 -29.5 12t-5.5 33zM1077 293h141l41 192z" />
<glyph unicode="&#xbf;" horiz-adv-x="1146" d="M-72 -45q0 37 9 70q28 114 102 194t199 172q88 66 135 111t65 96q8 25 26.5 40t41.5 15h156q23 0 36 -16t7 -39q-23 -86 -71 -153.5t-102.5 -113.5t-142.5 -110q-84 -59 -127 -98t-55 -86q-6 -20 -6 -43q0 -61 53 -98t154 -37q96 0 163.5 43t128.5 131q18 25 31.5 35 t38.5 10h166q18 0 28.5 -12.5t6.5 -32.5q-20 -100 -101.5 -197.5t-209.5 -160t-283 -62.5q-109 0 -212.5 44t-170 122t-66.5 176zM477 831l39 181q4 23 23.5 39t42.5 16h176q23 0 36 -16.5t9 -38.5l-39 -181q-4 -23 -24.5 -39t-43.5 -16h-176q-22 0 -34.5 16.5t-8.5 38.5z " />
<glyph unicode="&#xc0;" horiz-adv-x="1441" d="M-96 45q0 8 8 25l776 1294q23 37 42.5 53.5t49.5 16.5h232q30 0 43.5 -16.5t19.5 -53.5l228 -1294q4 -27 -17.5 -48.5t-50.5 -21.5h-137q-59 0 -70 51l-41 228h-647l-135 -228q-14 -23 -34.5 -37t-55.5 -14h-164q-20 0 -33.5 13.5t-13.5 31.5zM494 535h450l-100 583z M583 1798q0 18 13.5 31.5t34.5 13.5h204q27 0 39.5 -6t28.5 -33l129 -209q6 -8 6 -20q0 -16 -12 -27.5t-29 -11.5h-123q-29 0 -44 8t-34 27l-200 198q-12 12 -13 29z" />
<glyph unicode="&#xc1;" horiz-adv-x="1441" d="M-96 45q0 8 8 25l776 1294q23 37 42.5 53.5t49.5 16.5h232q30 0 43.5 -16.5t19.5 -53.5l228 -1294q4 -27 -17.5 -48.5t-50.5 -21.5h-137q-59 0 -70 51l-41 228h-647l-135 -228q-14 -23 -34.5 -37t-55.5 -14h-164q-20 0 -33.5 13.5t-13.5 31.5zM494 535h450l-100 583z M827 1561q0 18 17 34l219 209q27 25 43 32t41 7h205q16 0 24.5 -9t8.5 -22q0 -23 -19 -34l-295 -207q-25 -18 -45 -26.5t-49 -8.5h-123q-27 0 -27 25z" />
<glyph unicode="&#xc2;" horiz-adv-x="1441" d="M-96 45q0 8 8 25l776 1294q23 37 42.5 53.5t49.5 16.5h232q30 0 43.5 -16.5t19.5 -53.5l228 -1294q4 -27 -17.5 -48.5t-50.5 -21.5h-137q-59 0 -70 51l-41 228h-647l-135 -228q-14 -23 -34.5 -37t-55.5 -14h-164q-20 0 -33.5 13.5t-13.5 31.5zM494 535h450l-100 583z M550 1563q0 23 19 36l229 205q25 23 43.5 31t40.5 8h142q22 0 36.5 -8t30.5 -31l144 -209q6 -8 6 -20q0 -16 -11.5 -27.5t-29.5 -11.5h-72q-18 0 -29.5 4t-29.5 19l-144 96l-178 -96q-18 -10 -33.5 -16.5t-33.5 -6.5h-99q-14 0 -22.5 7t-8.5 20z" />
<glyph unicode="&#xc3;" horiz-adv-x="1441" d="M-96 45q0 8 8 25l776 1294q23 37 42.5 53.5t49.5 16.5h232q30 0 43.5 -16.5t19.5 -53.5l228 -1294q4 -27 -17.5 -48.5t-50.5 -21.5h-137q-59 0 -70 51l-41 228h-647l-135 -228q-14 -23 -34.5 -37t-55.5 -14h-164q-20 0 -33.5 13.5t-13.5 31.5zM494 535h450l-100 583z M585 1575q20 88 92 162.5t175 74.5q43 0 72.5 -10t70.5 -30q4 -2 33 -15.5t57 -13.5q23 0 36 8t28 25q12 14 21 20t24 6h114q18 0 26.5 -11t4.5 -28q-20 -88 -92 -162.5t-174 -74.5q-43 0 -74 10t-71 31q-29 14 -48.5 21t-42.5 7q-22 0 -35.5 -8t-25.5 -24 q-12 -14 -21.5 -20.5t-23.5 -6.5h-115q-18 0 -26.5 11.5t-4.5 27.5z" />
<glyph unicode="&#xc4;" horiz-adv-x="1441" d="M-96 45q0 8 8 25l776 1294q23 37 42.5 53.5t49.5 16.5h232q30 0 43.5 -16.5t19.5 -53.5l228 -1294q4 -27 -17.5 -48.5t-50.5 -21.5h-137q-59 0 -70 51l-41 228h-647l-135 -228q-14 -23 -34.5 -37t-55.5 -14h-164q-20 0 -33.5 13.5t-13.5 31.5zM494 535h450l-100 583z M540 1591l37 181q4 23 24.5 39t43.5 16h170q22 0 34.5 -16.5t8.5 -38.5l-37 -181q-4 -23 -24.5 -39t-43.5 -16h-170q-23 0 -35 16.5t-8 38.5zM1026 1591l37 181q4 23 24.5 39t42.5 16h170q23 0 35 -16.5t8 -38.5l-37 -181q-4 -23 -24.5 -39t-42.5 -16h-170q-23 0 -35 16.5 t-8 38.5z" />
<glyph unicode="&#xc5;" horiz-adv-x="1441" d="M-96 45q0 8 8 25l776 1294q23 37 42.5 53.5t49.5 16.5h232q30 0 43.5 -16.5t19.5 -53.5l228 -1294q4 -27 -17.5 -48.5t-50.5 -21.5h-137q-59 0 -70 51l-41 228h-647l-135 -228q-14 -23 -34.5 -37t-55.5 -14h-164q-20 0 -33.5 13.5t-13.5 31.5zM494 535h450l-100 583z M755 1653q0 12 5 37q18 78 77.5 126t143.5 48q61 0 106 -39t45 -99q0 -12 -4 -36q-18 -78 -77.5 -126t-143.5 -48q-61 0 -106.5 38.5t-45.5 98.5zM880 1673q0 -20 13.5 -32.5t34.5 -12.5q30 0 54.5 23.5t24.5 54.5q0 20 -13 32.5t-34 12.5q-31 0 -55.5 -23.5t-24.5 -54.5z " />
<glyph unicode="&#xc6;" horiz-adv-x="2070" d="M-115 55q2 10 15 25l1028 1286q25 33 47 50.5t59 17.5h1047q23 0 36 -16.5t9 -39.5l-33 -145q-4 -23 -23.5 -39t-41.5 -16h-662l-70 -326h617q23 0 35 -16.5t8 -38.5l-31 -146q-4 -23 -24.5 -39t-42.5 -16h-617l-72 -340h678q23 0 36 -16.5t7 -38.5l-30 -146 q-4 -23 -23.5 -39t-42.5 -16h-899q-23 0 -36 16.5t-9 38.5l47 224h-535l-180 -228q-41 -51 -90 -51h-162q-23 0 -36 16.5t-9 38.5zM569 535h383l138 645z" />
<glyph unicode="&#xc7;" horiz-adv-x="1396" d="M86 446q0 33 8 99q31 188 74 344q72 264 244 414.5t456 150.5q176 0 296 -59.5t179.5 -154.5t59.5 -202q0 -20 -4 -57q-2 -25 -21.5 -40t-44.5 -15h-166q-23 0 -38 14t-13 39q4 92 -63.5 155.5t-216.5 63.5q-152 0 -253.5 -86t-138.5 -223q-43 -156 -73 -344 q-6 -33 -6 -66q0 -111 66.5 -177t199.5 -66q150 0 245 63t132 156q8 25 28.5 39t40.5 14h166q25 0 38 -15.5t5 -39.5q-53 -197 -220 -335t-470 -138h-4l-64 -95q37 20 76 21q55 0 89 -39t34 -96q0 -23 -6 -47q-16 -80 -70.5 -127.5t-148.5 -47.5q-59 0 -114.5 26t-55.5 54 q0 12 14 25l33 27q20 14 33 14q8 0 31.5 -15.5t62.5 -15.5q41 0 66.5 21.5t25.5 60.5q0 45 -66 45q-18 0 -45.5 -10t-40.5 -10q-16 0 -26 12l-25 37q-10 16 -10 24q0 14 21 43l67 103q-182 31 -284.5 152.5t-102.5 303.5z" />
<glyph unicode="&#xc8;" d="M43 55q-4 -23 9.5 -39t35.5 -16h899q23 0 42.5 16.5t23.5 38.5l30 146q2 4 2 14q0 16 -12 28.5t-33 12.5h-678l72 340h617q23 0 43 16.5t24 38.5l31 146q4 23 -8.5 39t-34.5 16h-617l70 326h662q23 0 42 16t23 39l33 145q4 23 -9.5 39.5t-35.5 16.5h-883q-23 0 -42 -16.5 t-23 -39.5zM530 1798q0 18 13.5 31.5t34.5 13.5h204q27 0 39.5 -6t28.5 -33l129 -209q6 -8 6 -20q0 -16 -12 -27.5t-29 -11.5h-123q-29 0 -44 8t-34 27l-200 198q-12 12 -13 29z" />
<glyph unicode="&#xc9;" d="M43 55q-4 -23 9.5 -39t35.5 -16h899q23 0 42.5 16.5t23.5 38.5l30 146q2 4 2 14q0 16 -12 28.5t-33 12.5h-678l72 340h617q23 0 43 16.5t24 38.5l31 146q4 23 -8.5 39t-34.5 16h-617l70 326h662q23 0 42 16t23 39l33 145q4 23 -9.5 39.5t-35.5 16.5h-883q-23 0 -42 -16.5 t-23 -39.5zM725 1561q0 18 17 34l219 209q27 25 43 32t41 7h205q16 0 24.5 -9t8.5 -22q0 -23 -19 -34l-295 -207q-25 -18 -45 -26.5t-49 -8.5h-123q-27 0 -27 25z" />
<glyph unicode="&#xca;" d="M43 55q-4 -23 9.5 -39t35.5 -16h899q23 0 42.5 16.5t23.5 38.5l30 146q2 4 2 14q0 16 -12 28.5t-33 12.5h-678l72 340h617q23 0 43 16.5t24 38.5l31 146q4 23 -8.5 39t-34.5 16h-617l70 326h662q23 0 42 16t23 39l33 145q4 23 -9.5 39.5t-35.5 16.5h-883q-23 0 -42 -16.5 t-23 -39.5zM489 1563q0 23 19 36l229 205q25 23 43.5 31t40.5 8h142q22 0 36.5 -8t30.5 -31l144 -209q6 -8 6 -20q0 -16 -11.5 -27.5t-29.5 -11.5h-72q-18 0 -29.5 4t-29.5 19l-144 96l-178 -96q-18 -10 -33.5 -16.5t-33.5 -6.5h-99q-14 0 -22.5 7t-8.5 20z" />
<glyph unicode="&#xcb;" d="M43 55q-4 -23 9.5 -39t35.5 -16h899q23 0 42.5 16.5t23.5 38.5l30 146q2 4 2 14q0 16 -12 28.5t-33 12.5h-678l72 340h617q23 0 43 16.5t24 38.5l31 146q4 23 -8.5 39t-34.5 16h-617l70 326h662q23 0 42 16t23 39l33 145q4 23 -9.5 39.5t-35.5 16.5h-883q-23 0 -42 -16.5 t-23 -39.5zM483 1591l37 181q4 23 24.5 39t43.5 16h170q22 0 34.5 -16.5t8.5 -38.5l-37 -181q-4 -23 -24.5 -39t-43.5 -16h-170q-23 0 -35 16.5t-8 38.5zM969 1591l37 181q4 23 24.5 39t42.5 16h170q23 0 35 -16.5t8 -38.5l-37 -181q-4 -23 -24.5 -39t-42.5 -16h-170 q-23 0 -35 16.5t-8 38.5z" />
<glyph unicode="&#xcc;" horiz-adv-x="600" d="M43 55l283 1323q4 23 23.5 39.5t41.5 16.5h166q23 0 36 -16.5t9 -39.5l-283 -1323q-4 -23 -23.5 -39t-41.5 -16h-166q-22 0 -35.5 16.5t-9.5 38.5zM172 1798q0 18 13.5 31.5t34.5 13.5h204q27 0 39.5 -6t28.5 -33l129 -209q6 -8 6 -20q0 -16 -12 -27.5t-29 -11.5h-123 q-29 0 -44 8t-34 27l-200 198q-12 12 -13 29z" />
<glyph unicode="&#xcd;" horiz-adv-x="600" d="M43 55l283 1323q4 23 23.5 39.5t41.5 16.5h166q23 0 36 -16.5t9 -39.5l-283 -1323q-4 -23 -23.5 -39t-41.5 -16h-166q-22 0 -35.5 16.5t-9.5 38.5zM393 1561q0 18 17 34l219 209q27 25 43 32t41 7h205q16 0 24.5 -9t8.5 -22q0 -23 -19 -34l-295 -207q-25 -18 -45 -26.5 t-49 -8.5h-123q-27 0 -27 25z" />
<glyph unicode="&#xce;" horiz-adv-x="600" d="M43 55l283 1323q4 23 23.5 39.5t41.5 16.5h166q23 0 36 -16.5t9 -39.5l-283 -1323q-4 -23 -23.5 -39t-41.5 -16h-166q-22 0 -35.5 16.5t-9.5 38.5zM147 1563q0 23 19 36l229 205q25 23 43.5 31t40.5 8h142q22 0 36.5 -8t30.5 -31l144 -209q6 -8 6 -20q0 -16 -11.5 -27.5 t-29.5 -11.5h-72q-18 0 -29.5 4t-29.5 19l-144 96l-178 -96q-18 -10 -33.5 -16.5t-33.5 -6.5h-99q-14 0 -22.5 7t-8.5 20z" />
<glyph unicode="&#xcf;" horiz-adv-x="600" d="M43 55l283 1323q4 23 23.5 39.5t41.5 16.5h166q23 0 36 -16.5t9 -39.5l-283 -1323q-4 -23 -23.5 -39t-41.5 -16h-166q-22 0 -35.5 16.5t-9.5 38.5zM124 1591l37 181q4 23 24.5 39t43.5 16h170q22 0 34.5 -16.5t8.5 -38.5l-37 -181q-4 -23 -24.5 -39t-43.5 -16h-170 q-23 0 -35 16.5t-8 38.5zM610 1591l37 181q4 23 24.5 39t42.5 16h170q23 0 35 -16.5t8 -38.5l-37 -181q-4 -23 -24.5 -39t-42.5 -16h-170q-23 0 -35 16.5t-8 38.5z" />
<glyph unicode="&#xd0;" horiz-adv-x="1484" d="M51 662l29 129q4 23 23.5 39t41.5 16h109l115 532q4 23 23.5 39.5t41.5 16.5h506q256 0 380 -114t124 -321q0 -55 -10 -131q-27 -162 -66 -303q-74 -268 -254 -416.5t-467 -148.5h-516q-23 0 -36 16.5t-9 38.5l117 551h-109q-23 0 -35 16.5t-8 39.5zM406 256h284 q162 0 263.5 84t138.5 225q39 141 65 303q6 35 6 66q0 113 -69.5 178.5t-216.5 65.5h-275l-72 -332h220q23 0 36 -16.5t9 -38.5l-29 -129q-4 -23 -24.5 -39.5t-43.5 -16.5h-219z" />
<glyph unicode="&#xd1;" horiz-adv-x="1452" d="M43 55l283 1323q4 23 23.5 39.5t41.5 16.5h119q49 0 70 -48l415 -878l183 870q4 23 23.5 39.5t41.5 16.5h166q23 0 36 -16.5t9 -39.5l-280 -1323q-4 -23 -24 -39t-42 -16h-121q-29 0 -44 14.5t-28 34.5l-409 875l-187 -869q-4 -23 -23.5 -39t-41.5 -16h-166 q-23 0 -36 16.5t-9 38.5zM565 1575q20 88 92 162.5t175 74.5q43 0 72.5 -10t70.5 -30q4 -2 33 -15.5t57 -13.5q23 0 36 8t28 25q12 14 21 20t24 6h114q18 0 26.5 -11t4.5 -28q-20 -88 -92 -162.5t-174 -74.5q-43 0 -74 10t-71 31q-29 14 -48.5 21t-42.5 7q-22 0 -35.5 -8 t-25.5 -24q-12 -14 -21.5 -20.5t-23.5 -6.5h-115q-18 0 -26.5 11.5t-4.5 27.5z" />
<glyph unicode="&#xd2;" horiz-adv-x="1423" d="M86 436q0 53 8 96q12 82 35 187.5t43 179.5q147 555 698 555q158 0 275 -60.5t178 -165t61 -237.5q0 -31 -8 -92q-20 -127 -78 -367q-68 -258 -229.5 -405t-470.5 -147q-158 0 -273.5 59t-177 162.5t-61.5 234.5zM367 473q0 -115 70.5 -176t195.5 -61q143 0 247.5 80.5 t143.5 226.5q47 184 74 346q6 35 6 67q0 115 -69.5 178.5t-196.5 63.5q-144 0 -248.5 -82t-143.5 -227q-51 -180 -73 -346q-6 -37 -6 -70zM526 1798q0 18 13.5 31.5t34.5 13.5h204q27 0 39.5 -6t28.5 -33l129 -209q6 -8 6 -20q0 -16 -12 -27.5t-29 -11.5h-123q-29 0 -44 8 t-34 27l-200 198q-12 12 -13 29z" />
<glyph unicode="&#xd3;" horiz-adv-x="1423" d="M86 436q0 53 8 96q12 82 35 187.5t43 179.5q147 555 698 555q158 0 275 -60.5t178 -165t61 -237.5q0 -31 -8 -92q-20 -127 -78 -367q-68 -258 -229.5 -405t-470.5 -147q-158 0 -273.5 59t-177 162.5t-61.5 234.5zM367 473q0 -115 70.5 -176t195.5 -61q143 0 247.5 80.5 t143.5 226.5q47 184 74 346q6 35 6 67q0 115 -69.5 178.5t-196.5 63.5q-144 0 -248.5 -82t-143.5 -227q-51 -180 -73 -346q-6 -37 -6 -70zM772 1561q0 18 17 34l219 209q27 25 43 32t41 7h205q16 0 24.5 -9t8.5 -22q0 -23 -19 -34l-295 -207q-25 -18 -45 -26.5t-49 -8.5 h-123q-27 0 -27 25z" />
<glyph unicode="&#xd4;" horiz-adv-x="1423" d="M86 436q0 53 8 96q12 82 35 187.5t43 179.5q147 555 698 555q158 0 275 -60.5t178 -165t61 -237.5q0 -31 -8 -92q-20 -127 -78 -367q-68 -258 -229.5 -405t-470.5 -147q-158 0 -273.5 59t-177 162.5t-61.5 234.5zM367 473q0 -115 70.5 -176t195.5 -61q143 0 247.5 80.5 t143.5 226.5q47 184 74 346q6 35 6 67q0 115 -69.5 178.5t-196.5 63.5q-144 0 -248.5 -82t-143.5 -227q-51 -180 -73 -346q-6 -37 -6 -70zM536 1563q0 23 19 36l229 205q25 23 43.5 31t40.5 8h142q22 0 36.5 -8t30.5 -31l144 -209q6 -8 6 -20q0 -16 -11.5 -27.5t-29.5 -11.5 h-72q-18 0 -29.5 4t-29.5 19l-144 96l-178 -96q-18 -10 -33.5 -16.5t-33.5 -6.5h-99q-14 0 -22.5 7t-8.5 20z" />
<glyph unicode="&#xd5;" horiz-adv-x="1423" d="M86 436q0 53 8 96q12 82 35 187.5t43 179.5q147 555 698 555q158 0 275 -60.5t178 -165t61 -237.5q0 -31 -8 -92q-20 -127 -78 -367q-68 -258 -229.5 -405t-470.5 -147q-158 0 -273.5 59t-177 162.5t-61.5 234.5zM367 473q0 -115 70.5 -176t195.5 -61q143 0 247.5 80.5 t143.5 226.5q47 184 74 346q6 35 6 67q0 115 -69.5 178.5t-196.5 63.5q-144 0 -248.5 -82t-143.5 -227q-51 -180 -73 -346q-6 -37 -6 -70zM561 1575q20 88 92 162.5t175 74.5q43 0 72.5 -10t70.5 -30q4 -2 33 -15.5t57 -13.5q23 0 36 8t28 25q12 14 21 20t24 6h114 q18 0 26.5 -11t4.5 -28q-20 -88 -92 -162.5t-174 -74.5q-43 0 -74 10t-71 31q-29 14 -48.5 21t-42.5 7q-22 0 -35.5 -8t-25.5 -24q-12 -14 -21.5 -20.5t-23.5 -6.5h-115q-18 0 -26.5 11.5t-4.5 27.5z" />
<glyph unicode="&#xd6;" horiz-adv-x="1423" d="M86 436q0 53 8 96q12 82 35 187.5t43 179.5q147 555 698 555q158 0 275 -60.5t178 -165t61 -237.5q0 -31 -8 -92q-20 -127 -78 -367q-68 -258 -229.5 -405t-470.5 -147q-158 0 -273.5 59t-177 162.5t-61.5 234.5zM367 473q0 -115 70.5 -176t195.5 -61q143 0 247.5 80.5 t143.5 226.5q47 184 74 346q6 35 6 67q0 115 -69.5 178.5t-196.5 63.5q-144 0 -248.5 -82t-143.5 -227q-51 -180 -73 -346q-6 -37 -6 -70zM507 1591l37 181q4 23 24.5 39t43.5 16h170q22 0 34.5 -16.5t8.5 -38.5l-37 -181q-4 -23 -24.5 -39t-43.5 -16h-170q-23 0 -35 16.5 t-8 38.5zM993 1591l37 181q4 23 24.5 39t42.5 16h170q23 0 35 -16.5t8 -38.5l-37 -181q-4 -23 -24.5 -39t-42.5 -16h-170q-23 0 -35 16.5t-8 38.5z" />
<glyph unicode="&#xd7;" horiz-adv-x="1173" d="M39 344q0 33 24 51l363 299l-223 285q-8 10 -8 27q0 31 24 51l105 86q23 16 43 16q23 0 34 -16l224 -285l362 299q23 16 43 17q23 0 35 -17l88 -113q10 -14 10 -28q0 -29 -26 -49l-363 -299l227 -285q8 -10 9 -27q0 -31 -27 -51l-104 -88q-16 -14 -43 -14q-23 0 -35 14 l-226 287l-360 -297q-23 -16 -43 -17q-23 0 -35 17l-90 110q-8 10 -8 27z" />
<glyph unicode="&#xd8;" horiz-adv-x="1492" d="M-12 397l20 99q6 27 19.5 42t40.5 25l69 25q35 188 70 311q147 555 698 555q219 0 354.5 -111.5t155.5 -293.5l82 30q16 6 23 6q18 0 28.5 -12t5.5 -31l-22 -98q-4 -27 -17.5 -42t-41.5 -25l-70 -25q-18 -96 -70 -320q-68 -258 -229.5 -405t-470.5 -147 q-221 0 -357.5 112.5t-152.5 294.5l-78 -27l-25 -6q-18 0 -27 12.5t-5 30.5zM401 489q-6 -121 65 -187t202 -66q143 0 247.5 80.5t143.5 226.5l10 43q29 113 37 157zM434 696l703 252q2 119 -67 184.5t-198 65.5q-143 0 -247.5 -82t-143.5 -227q-25 -86 -47 -193z" />
<glyph unicode="&#xd9;" horiz-adv-x="1472" d="M119 414q0 49 14 125l180 839q4 23 23.5 39.5t42.5 16.5h166q23 0 36 -16.5t9 -39.5l-178 -829q-10 -43 -11 -96q0 -217 254 -217q145 0 245.5 75.5t133.5 237.5l178 829q4 23 23.5 39.5t42.5 16.5h164q22 0 35.5 -16.5t9.5 -39.5l-180 -839q-55 -268 -217 -413.5 t-469 -145.5q-152 0 -265.5 53t-175 151.5t-61.5 229.5zM596 1798q0 18 13.5 31.5t34.5 13.5h204q27 0 39.5 -6t28.5 -33l129 -209q6 -8 6 -20q0 -16 -12 -27.5t-29 -11.5h-123q-29 0 -44 8t-34 27l-200 198q-12 12 -13 29z" />
<glyph unicode="&#xda;" horiz-adv-x="1472" d="M119 414q0 49 14 125l180 839q4 23 23.5 39.5t42.5 16.5h166q23 0 36 -16.5t9 -39.5l-178 -829q-10 -43 -11 -96q0 -217 254 -217q145 0 245.5 75.5t133.5 237.5l178 829q4 23 23.5 39.5t42.5 16.5h164q22 0 35.5 -16.5t9.5 -39.5l-180 -839q-55 -268 -217 -413.5 t-469 -145.5q-152 0 -265.5 53t-175 151.5t-61.5 229.5zM788 1561q0 18 17 34l219 209q27 25 43 32t41 7h205q16 0 24.5 -9t8.5 -22q0 -23 -19 -34l-295 -207q-25 -18 -45 -26.5t-49 -8.5h-123q-27 0 -27 25z" />
<glyph unicode="&#xdb;" horiz-adv-x="1472" d="M119 414q0 49 14 125l180 839q4 23 23.5 39.5t42.5 16.5h166q23 0 36 -16.5t9 -39.5l-178 -829q-10 -43 -11 -96q0 -217 254 -217q145 0 245.5 75.5t133.5 237.5l178 829q4 23 23.5 39.5t42.5 16.5h164q22 0 35.5 -16.5t9.5 -39.5l-180 -839q-55 -268 -217 -413.5 t-469 -145.5q-152 0 -265.5 53t-175 151.5t-61.5 229.5zM557 1563q0 23 19 36l229 205q25 23 43.5 31t40.5 8h142q22 0 36.5 -8t30.5 -31l144 -209q6 -8 6 -20q0 -16 -11.5 -27.5t-29.5 -11.5h-72q-18 0 -29.5 4t-29.5 19l-144 96l-178 -96q-18 -10 -33.5 -16.5t-33.5 -6.5 h-99q-14 0 -22.5 7t-8.5 20z" />
<glyph unicode="&#xdc;" horiz-adv-x="1472" d="M119 414q0 49 14 125l180 839q4 23 23.5 39.5t42.5 16.5h166q23 0 36 -16.5t9 -39.5l-178 -829q-10 -43 -11 -96q0 -217 254 -217q145 0 245.5 75.5t133.5 237.5l178 829q4 23 23.5 39.5t42.5 16.5h164q22 0 35.5 -16.5t9.5 -39.5l-180 -839q-55 -268 -217 -413.5 t-469 -145.5q-152 0 -265.5 53t-175 151.5t-61.5 229.5zM530 1591l37 181q4 23 24.5 39t43.5 16h170q22 0 34.5 -16.5t8.5 -38.5l-37 -181q-4 -23 -24.5 -39t-43.5 -16h-170q-23 0 -35 16.5t-8 38.5zM1016 1591l37 181q4 23 24.5 39t42.5 16h170q23 0 35 -16.5t8 -38.5 l-37 -181q-4 -23 -24.5 -39t-42.5 -16h-170q-23 0 -35 16.5t-8 38.5z" />
<glyph unicode="&#xdd;" horiz-adv-x="1349" d="M213 1372q0 25 20.5 43.5t45.5 18.5h139q35 0 52 -16.5t24 -35.5l202 -571l447 571q20 27 39.5 39.5t56.5 12.5h182q21 0 34 -13.5t13 -31.5q0 -14 -10 -29l-670 -854l-96 -451q-4 -23 -23.5 -39t-41.5 -16h-162q-23 0 -36 16.5t-9 38.5l96 451l-301 848q-2 6 -2 18z M702 1561q0 18 17 34l219 209q27 25 43 32t41 7h205q16 0 24.5 -9t8.5 -22q0 -23 -19 -34l-295 -207q-25 -18 -45 -26.5t-49 -8.5h-123q-27 0 -27 25z" />
<glyph unicode="&#xde;" horiz-adv-x="1357" d="M45 55l281 1323q4 23 23.5 39.5t41.5 16.5h166q23 0 36 -16.5t9 -39.5l-43 -198h307q207 0 333 -92.5t126 -262.5q0 -49 -12 -104q-49 -231 -190.5 -347t-409.5 -116h-348l-43 -203q-4 -23 -23.5 -39t-42.5 -16h-166q-23 0 -36 16.5t-9 38.5zM418 514h317q123 0 201 48 t100 159q6 31 6 57q0 78 -56 112t-163 34h-317z" />
<glyph unicode="&#xdf;" horiz-adv-x="1269" d="M25 55l184 869q57 266 193.5 398t400.5 132q139 0 240.5 -49t153.5 -131t52 -178q0 -43 -8 -76q-20 -100 -65.5 -157.5t-118.5 -106.5q35 -33 61.5 -101.5t26.5 -148.5q0 -39 -10 -90q-39 -182 -170 -299t-416 -117h-90q-23 0 -36 16.5t-9 38.5l28 135q4 23 24.5 39.5 t43.5 16.5h70q111 0 189.5 47t98.5 143q4 16 4 45q0 72 -55 110t-155 38h-80q-20 0 -30.5 12t-6.5 33l35 155q2 20 17 32.5t36 12.5h67q115 0 185.5 39t89.5 127q4 25 4 37q0 61 -55.5 96t-151.5 35q-233 0 -297 -284l-184 -869q-4 -23 -23.5 -39t-42.5 -16h-155 q-23 0 -36.5 16.5t-8.5 38.5z" />
<glyph unicode="&#xe0;" d="M55 393q0 39 6 78q20 102 31 143q53 205 190.5 338t346.5 133q115 0 193.5 -38.5t109.5 -83.5l10 47q4 23 23.5 39t42.5 16h155q23 0 36 -16.5t9 -38.5l-202 -955q-4 -23 -23.5 -39t-42.5 -16h-156q-23 0 -36 16.5t-9 38.5l11 47q-47 -59 -117 -90.5t-199 -31.5 q-111 0 -196.5 56t-134 151.5t-48.5 205.5zM328 426q0 -102 53 -151.5t147 -49.5q102 0 182.5 60.5t114.5 169.5q10 35 20.5 81t12.5 74q2 12 2 35q0 90 -54 142.5t-147 52.5q-104 0 -185 -61.5t-120 -188.5q-18 -53 -24 -115q-2 -18 -2 -49zM387 1481q0 18 14.5 31.5 t35.5 13.5h194q27 0 39 -6.5t29 -32.5l129 -209q6 -9 6 -21q0 -16 -12.5 -27t-28.5 -11h-113q-29 0 -44 8t-34 26l-202 201q-12 12 -13 27z" />
<glyph unicode="&#xe1;" d="M55 393q0 39 6 78q20 102 31 143q53 205 190.5 338t346.5 133q115 0 193.5 -38.5t109.5 -83.5l10 47q4 23 23.5 39t42.5 16h155q23 0 36 -16.5t9 -38.5l-202 -955q-4 -23 -23.5 -39t-42.5 -16h-156q-23 0 -36 16.5t-9 38.5l11 47q-47 -59 -117 -90.5t-199 -31.5 q-111 0 -196.5 56t-134 151.5t-48.5 205.5zM328 426q0 -102 53 -151.5t147 -49.5q102 0 182.5 60.5t114.5 169.5q10 35 20.5 81t12.5 74q2 12 2 35q0 90 -54 142.5t-147 52.5q-104 0 -185 -61.5t-120 -188.5q-18 -53 -24 -115q-2 -18 -2 -49zM649 1243q0 18 17 35l219 209 q27 24 43 31.5t41 7.5h195q16 0 24 -9.5t8 -21.5q0 -23 -18 -35l-295 -207q-25 -18 -45.5 -26t-48.5 -8h-113q-27 0 -27 24z" />
<glyph unicode="&#xe2;" d="M55 393q0 39 6 78q20 102 31 143q53 205 190.5 338t346.5 133q115 0 193.5 -38.5t109.5 -83.5l10 47q4 23 23.5 39t42.5 16h155q23 0 36 -16.5t9 -38.5l-202 -955q-4 -23 -23.5 -39t-42.5 -16h-156q-23 0 -36 16.5t-9 38.5l11 47q-47 -59 -117 -90.5t-199 -31.5 q-111 0 -196.5 56t-134 151.5t-48.5 205.5zM328 426q0 -102 53 -151.5t147 -49.5q102 0 182.5 60.5t114.5 169.5q10 35 20.5 81t12.5 74q2 12 2 35q0 90 -54 142.5t-147 52.5q-104 0 -185 -61.5t-120 -188.5q-18 -53 -24 -115q-2 -18 -2 -49zM395 1245q0 16 17 33l233 209 q25 23 43.5 31t40.5 8h123q23 0 37 -8.5t31 -30.5l143 -209q6 -8 6 -21q0 -16 -12 -27t-29 -11h-74q-18 0 -29 4t-30 18l-127 96l-176 -96q-20 -12 -34.5 -17t-33.5 -5h-102q-12 0 -19.5 8t-7.5 18z" />
<glyph unicode="&#xe3;" d="M55 393q0 39 6 78q20 102 31 143q53 205 190.5 338t346.5 133q115 0 193.5 -38.5t109.5 -83.5l10 47q4 23 23.5 39t42.5 16h155q23 0 36 -16.5t9 -38.5l-202 -955q-4 -23 -23.5 -39t-42.5 -16h-156q-23 0 -36 16.5t-9 38.5l11 47q-47 -59 -117 -90.5t-199 -31.5 q-111 0 -196.5 56t-134 151.5t-48.5 205.5zM328 426q0 -102 53 -151.5t147 -49.5q102 0 182.5 60.5t114.5 169.5q10 35 20.5 81t12.5 74q2 12 2 35q0 90 -54 142.5t-147 52.5q-104 0 -185 -61.5t-120 -188.5q-18 -53 -24 -115q-2 -18 -2 -49zM385 1257q20 88 92 163t175 75 q43 0 69.5 -10t63.5 -31q27 -14 42 -21.5t38 -7.5t36 8.5t27 24.5q12 14 21.5 20.5t23.5 6.5h115q18 0 26.5 -11.5t4.5 -27.5q-20 -88 -92 -163t-175 -75q-43 0 -71.5 10.5t-61.5 30.5q-25 14 -42 21.5t-40 7.5q-22 0 -35.5 -8t-25.5 -25q-12 -14 -21.5 -20t-23.5 -6h-115 q-18 0 -26.5 11t-4.5 27z" />
<glyph unicode="&#xe4;" d="M55 393q0 39 6 78q20 102 31 143q53 205 190.5 338t346.5 133q115 0 193.5 -38.5t109.5 -83.5l10 47q4 23 23.5 39t42.5 16h155q23 0 36 -16.5t9 -38.5l-202 -955q-4 -23 -23.5 -39t-42.5 -16h-156q-23 0 -36 16.5t-9 38.5l11 47q-47 -59 -117 -90.5t-199 -31.5 q-111 0 -196.5 56t-134 151.5t-48.5 205.5zM328 426q0 -102 53 -151.5t147 -49.5q102 0 182.5 60.5t114.5 169.5q10 35 20.5 81t12.5 74q2 12 2 35q0 90 -54 142.5t-147 52.5q-104 0 -185 -61.5t-120 -188.5q-18 -53 -24 -115q-2 -18 -2 -49zM403 1274l37 180q4 23 24.5 39 t43.5 16h170q22 0 34.5 -16t8.5 -39l-37 -180q-4 -23 -24.5 -39t-43.5 -16h-170q-23 0 -35 16t-8 39zM827 1274l37 180q4 23 24.5 39t43.5 16h170q22 0 34.5 -16t8.5 -39l-37 -180q-4 -23 -24.5 -39t-43.5 -16h-170q-23 0 -35 16t-8 39z" />
<glyph unicode="&#xe5;" d="M55 393q0 39 6 78q20 102 31 143q53 205 190.5 338t346.5 133q115 0 193.5 -38.5t109.5 -83.5l10 47q4 23 23.5 39t42.5 16h155q23 0 36 -16.5t9 -38.5l-202 -955q-4 -23 -23.5 -39t-42.5 -16h-156q-23 0 -36 16.5t-9 38.5l11 47q-47 -59 -117 -90.5t-199 -31.5 q-111 0 -196.5 56t-134 151.5t-48.5 205.5zM328 426q0 -102 53 -151.5t147 -49.5q102 0 182.5 60.5t114.5 169.5q10 35 20.5 81t12.5 74q2 12 2 35q0 90 -54 142.5t-147 52.5q-104 0 -185 -61.5t-120 -188.5q-18 -53 -24 -115q-2 -18 -2 -49zM608 1346q0 12 5 36 q18 78 77.5 126t143.5 48q61 0 106 -38.5t45 -98.5q0 -12 -4 -37q-18 -78 -77.5 -126t-143.5 -48q-61 0 -106.5 39t-45.5 99zM733 1366q0 -20 13.5 -32.5t34.5 -12.5q30 0 54.5 23.5t24.5 54.5q0 20 -13 32.5t-34 12.5q-31 0 -55.5 -23.5t-24.5 -54.5z" />
<glyph unicode="&#xe6;" horiz-adv-x="1851" d="M-2 244q0 20 8 65q29 135 140.5 212t295.5 108l346 57q4 29 5 37q0 59 -44 88t-120 29q-47 0 -79 -13.5t-69 -40.5q-37 -29 -73 -28h-191q-20 0 -29.5 12t-5.5 33q14 66 68.5 130t157 108t251.5 44q103 0 188 -31.5t138 -90.5q154 123 367 122q123 0 219 -55 t150.5 -150.5t54.5 -211.5q0 -59 -11 -103l-18 -92q-6 -23 -25.5 -39t-42.5 -16h-684q-4 -29 -4 -39q0 -72 57.5 -113t141.5 -41q113 0 184 47q25 16 41.5 22.5t40.5 6.5h164q20 0 32.5 -12.5t12.5 -28.5q0 -39 -59.5 -107.5t-174 -120.5t-274.5 -52q-217 0 -344 182 q-90 -90 -189.5 -136t-275.5 -46q-164 0 -257 73.5t-93 190.5zM272 309q-8 -41 29 -62.5t100 -21.5q133 0 225.5 68.5t112.5 161.5l4 20l-288 -49q-86 -14 -129 -42t-54 -75zM1044 651h463l2 29q0 160 -188 160q-100 0 -170 -51.5t-100 -120.5q-2 -5 -2 -11l-5 -4v-2z" />
<glyph unicode="&#xe7;" horiz-adv-x="1177" d="M53 389q0 18 4 60q10 76 35 165q59 209 205.5 340t384.5 131q145 0 245.5 -54t150.5 -133t50 -146q0 -16 -2 -23q-2 -23 -23.5 -39t-43.5 -16h-150q-20 0 -30.5 13t-24.5 42q-25 55 -68 83t-135 28q-94 0 -176 -58.5t-119 -177.5q-18 -61 -30 -143q-2 -14 -2 -39 q0 -100 55 -148.5t141 -48.5q92 0 143.5 27t100.5 84q25 27 42 41t38 14h157q25 0 38.5 -16.5t4.5 -38.5q-20 -76 -79.5 -156t-178 -140t-299.5 -60h-4l-63 -95q37 20 76 21q55 0 88.5 -39t33.5 -96q0 -23 -6 -47q-16 -80 -70.5 -127.5t-148.5 -47.5q-59 0 -114.5 26 t-55.5 54q0 12 15 25l32 27q20 14 33 14q8 0 31.5 -15.5t62.5 -15.5q41 0 66.5 21.5t25.5 60.5q0 45 -65 45q-18 0 -46 -10t-40 -10q-16 0 -27 12l-24 37q-10 16 -11 24q0 14 21 43l72 107q-141 35 -228.5 144.5t-87.5 250.5z" />
<glyph unicode="&#xe8;" horiz-adv-x="1165" d="M55 414q0 68 15 127q53 248 200.5 396t395.5 148q122 0 218.5 -55t151 -150.5t54.5 -211.5q0 -59 -11 -103l-18 -92q-6 -23 -25.5 -39t-42.5 -16h-684q-4 -29 -4 -39q0 -72 57.5 -113t141.5 -41q113 0 184 47q25 16 41 22.5t41 6.5h164q20 0 32.5 -12.5t12.5 -28.5 q0 -39 -59.5 -107.5t-174 -120.5t-274.5 -52q-115 0 -210 55t-150.5 153.5t-55.5 225.5zM358 651h463l2 29q0 160 -188 160q-106 0 -179 -57.5t-98 -131.5zM372 1481q0 18 14.5 31.5t35.5 13.5h194q27 0 39 -6.5t29 -32.5l129 -209q6 -9 6 -21q0 -16 -12.5 -27t-28.5 -11 h-113q-29 0 -44 8t-34 26l-202 201q-12 12 -13 27z" />
<glyph unicode="&#xe9;" horiz-adv-x="1165" d="M55 414q0 68 15 127q53 248 200.5 396t395.5 148q122 0 218.5 -55t151 -150.5t54.5 -211.5q0 -59 -11 -103l-18 -92q-6 -23 -25.5 -39t-42.5 -16h-684q-4 -29 -4 -39q0 -72 57.5 -113t141.5 -41q113 0 184 47q25 16 41 22.5t41 6.5h164q20 0 32.5 -12.5t12.5 -28.5 q0 -39 -59.5 -107.5t-174 -120.5t-274.5 -52q-115 0 -210 55t-150.5 153.5t-55.5 225.5zM358 651h463l2 29q0 160 -188 160q-106 0 -179 -57.5t-98 -131.5zM606 1243q0 18 17 35l219 209q27 24 43 31.5t41 7.5h195q16 0 24 -9.5t8 -21.5q0 -23 -18 -35l-295 -207 q-25 -18 -45.5 -26t-48.5 -8h-113q-27 0 -27 24z" />
<glyph unicode="&#xea;" horiz-adv-x="1165" d="M55 414q0 68 15 127q53 248 200.5 396t395.5 148q122 0 218.5 -55t151 -150.5t54.5 -211.5q0 -59 -11 -103l-18 -92q-6 -23 -25.5 -39t-42.5 -16h-684q-4 -29 -4 -39q0 -72 57.5 -113t141.5 -41q113 0 184 47q25 16 41 22.5t41 6.5h164q20 0 32.5 -12.5t12.5 -28.5 q0 -39 -59.5 -107.5t-174 -120.5t-274.5 -52q-115 0 -210 55t-150.5 153.5t-55.5 225.5zM344 1245q0 16 17 33l233 209q25 23 43.5 31t40.5 8h123q23 0 37 -8.5t31 -30.5l143 -209q6 -8 6 -21q0 -16 -12 -27t-29 -11h-74q-18 0 -29 4t-30 18l-127 96l-176 -96 q-20 -12 -34.5 -17t-33.5 -5h-102q-12 0 -19.5 8t-7.5 18zM358 651h463l2 29q0 160 -188 160q-106 0 -179 -57.5t-98 -131.5z" />
<glyph unicode="&#xeb;" horiz-adv-x="1165" d="M55 414q0 68 15 127q53 248 200.5 396t395.5 148q122 0 218.5 -55t151 -150.5t54.5 -211.5q0 -59 -11 -103l-18 -92q-6 -23 -25.5 -39t-42.5 -16h-684q-4 -29 -4 -39q0 -72 57.5 -113t141.5 -41q113 0 184 47q25 16 41 22.5t41 6.5h164q20 0 32.5 -12.5t12.5 -28.5 q0 -39 -59.5 -107.5t-174 -120.5t-274.5 -52q-115 0 -210 55t-150.5 153.5t-55.5 225.5zM354 1274l37 180q4 23 24.5 39t43.5 16h170q22 0 34.5 -16t8.5 -39l-37 -180q-4 -23 -24.5 -39t-43.5 -16h-170q-23 0 -35 16t-8 39zM358 651h463l2 29q0 160 -188 160 q-106 0 -179 -57.5t-98 -131.5zM778 1274l37 180q4 23 24.5 39t43.5 16h170q22 0 34.5 -16t8.5 -39l-37 -180q-4 -23 -24.5 -39t-43.5 -16h-170q-23 0 -35 16t-8 39z" />
<glyph unicode="&#xec;" horiz-adv-x="548" d="M25 55l202 955q4 23 24.5 39t43.5 16h156q23 0 35 -16.5t8 -38.5l-203 -955q-4 -22 -23.5 -38.5t-42.5 -16.5h-155q-23 0 -36.5 16.5t-8.5 38.5zM92 1481q0 18 14.5 31.5t35.5 13.5h194q27 0 39 -6.5t29 -32.5l129 -209q6 -9 6 -21q0 -16 -12.5 -27t-28.5 -11h-113 q-29 0 -44 8t-34 26l-202 201q-12 12 -13 27z" />
<glyph unicode="&#xed;" horiz-adv-x="548" d="M25 55l202 955q4 23 24.5 39t43.5 16h156q23 0 35 -16.5t8 -38.5l-203 -955q-4 -22 -23.5 -38.5t-42.5 -16.5h-155q-23 0 -36.5 16.5t-8.5 38.5zM294 1243q0 18 17 35l219 209q27 24 43 31.5t41 7.5h195q16 0 24 -9.5t8 -21.5q0 -23 -18 -35l-295 -207q-25 -18 -45.5 -26 t-48.5 -8h-113q-27 0 -27 24z" />
<glyph unicode="&#xee;" horiz-adv-x="548" d="M25 55l202 955q4 23 24.5 39t43.5 16h156q23 0 35 -16.5t8 -38.5l-203 -955q-4 -22 -23.5 -38.5t-42.5 -16.5h-155q-23 0 -36.5 16.5t-8.5 38.5zM59 1245q0 16 17 33l233 209q25 23 43.5 31t40.5 8h123q23 0 37 -8.5t31 -30.5l143 -209q6 -8 6 -21q0 -16 -12 -27t-29 -11 h-74q-18 0 -29 4t-30 18l-127 96l-176 -96q-20 -12 -34.5 -17t-33.5 -5h-102q-12 0 -19.5 8t-7.5 18z" />
<glyph unicode="&#xef;" horiz-adv-x="548" d="M25 55l202 955q4 23 24.5 39t43.5 16h156q23 0 35 -16.5t8 -38.5l-203 -955q-4 -22 -23.5 -38.5t-42.5 -16.5h-155q-23 0 -36.5 16.5t-8.5 38.5zM65 1274l37 180q4 23 24.5 39t43.5 16h170q22 0 34.5 -16t8.5 -39l-37 -180q-4 -23 -24.5 -39t-43.5 -16h-170q-23 0 -35 16 t-8 39zM489 1274l37 180q4 23 24.5 39t43.5 16h170q22 0 34.5 -16t8.5 -39l-37 -180q-4 -23 -24.5 -39t-43.5 -16h-170q-23 0 -35 16t-8 39z" />
<glyph unicode="&#xf0;" horiz-adv-x="1214" d="M45 375q0 49 12 106q53 246 201 364t395 118q104 0 172 -19q-18 68 -49 131l-205 -74q-14 -6 -22 -6q-18 0 -28.5 12.5t-6.5 30.5l21 99q6 27 19 42t40 25l74 27q-57 66 -113 117q-29 29 -25 45q4 18 17.5 29.5t32.5 11.5h217q39 0 69 -27q49 -53 70 -80l205 74 q16 6 24 6q18 0 27.5 -12.5t5.5 -30.5l-20 -98q-6 -27 -19.5 -42.5t-40.5 -25.5l-78 -29q84 -162 84 -366q0 -137 -37 -322q-55 -260 -204.5 -380.5t-397.5 -120.5q-112 0 -212.5 46t-164 135t-63.5 214zM315 410q0 -84 51.5 -134.5t151.5 -50.5q117 0 197 70t102 176 q8 45 8 64q0 82 -52 132t-150 50q-117 0 -197 -69.5t-104 -176.5q-6 -31 -7 -61z" />
<glyph unicode="&#xf1;" horiz-adv-x="1267" d="M25 55l202 955q4 23 24.5 39t43.5 16h156q23 0 35 -16.5t8 -38.5l-11 -47q117 123 301 122q178 0 273.5 -101t95.5 -261q0 -55 -12 -117l-117 -551q-4 -22 -23.5 -38.5t-42.5 -16.5h-155q-23 0 -36 16.5t-9 38.5l110 520q10 55 11 89q0 86 -47.5 134t-139.5 48 q-106 0 -185 -74t-106 -197l-110 -520q-4 -23 -23.5 -39t-42.5 -16h-155q-23 0 -36.5 16.5t-8.5 38.5zM393 1257q20 88 92 163t175 75q43 0 69.5 -10t63.5 -31q27 -14 42 -21.5t38 -7.5t36 8.5t27 24.5q12 14 21.5 20.5t23.5 6.5h115q18 0 26.5 -11.5t4.5 -27.5 q-20 -88 -92 -163t-175 -75q-43 0 -71.5 10.5t-61.5 30.5q-25 14 -42 21.5t-40 7.5q-22 0 -35.5 -8t-25.5 -25q-12 -14 -21.5 -20t-23.5 -6h-115q-18 0 -26.5 11t-4.5 27z" />
<glyph unicode="&#xf2;" horiz-adv-x="1214" d="M53 383q0 18 4 55t17.5 98.5t25.5 108.5q59 203 202.5 321.5t385.5 118.5q125 0 226.5 -53t157.5 -144t56 -202q0 -20 -4 -61q-4 -37 -18 -103.5t-25 -103.5q-61 -207 -197 -322.5t-390 -115.5q-127 0 -227.5 53t-157 145t-56.5 205zM322 403q0 -96 57 -137t147 -41 q98 0 178 49.5t115 165.5q12 41 24.5 98.5t14.5 86.5q2 14 2 39q0 94 -57.5 135t-145.5 41q-98 0 -178 -49.5t-117 -165.5q-12 -41 -24 -98.5t-14 -86.5q-2 -12 -2 -37zM393 1481q0 18 14.5 31.5t35.5 13.5h194q27 0 39 -6.5t29 -32.5l129 -209q6 -9 6 -21q0 -16 -12.5 -27 t-28.5 -11h-113q-29 0 -44 8t-34 26l-202 201q-12 12 -13 27z" />
<glyph unicode="&#xf3;" horiz-adv-x="1214" d="M53 383q0 18 4 55t17.5 98.5t25.5 108.5q59 203 202.5 321.5t385.5 118.5q125 0 226.5 -53t157.5 -144t56 -202q0 -20 -4 -61q-4 -37 -18 -103.5t-25 -103.5q-61 -207 -197 -322.5t-390 -115.5q-127 0 -227.5 53t-157 145t-56.5 205zM322 403q0 -96 57 -137t147 -41 q98 0 178 49.5t115 165.5q12 41 24.5 98.5t14.5 86.5q2 14 2 39q0 94 -57.5 135t-145.5 41q-98 0 -178 -49.5t-117 -165.5q-12 -41 -24 -98.5t-14 -86.5q-2 -12 -2 -37zM626 1243q0 18 17 35l219 209q27 24 43 31.5t41 7.5h195q16 0 24 -9.5t8 -21.5q0 -23 -18 -35 l-295 -207q-25 -18 -45.5 -26t-48.5 -8h-113q-27 0 -27 24z" />
<glyph unicode="&#xf4;" horiz-adv-x="1214" d="M53 383q0 18 4 55t17.5 98.5t25.5 108.5q59 203 202.5 321.5t385.5 118.5q125 0 226.5 -53t157.5 -144t56 -202q0 -20 -4 -61q-4 -37 -18 -103.5t-25 -103.5q-61 -207 -197 -322.5t-390 -115.5q-127 0 -227.5 53t-157 145t-56.5 205zM322 403q0 -96 57 -137t147 -41 q98 0 178 49.5t115 165.5q12 41 24.5 98.5t14.5 86.5q2 14 2 39q0 94 -57.5 135t-145.5 41q-98 0 -178 -49.5t-117 -165.5q-12 -41 -24 -98.5t-14 -86.5q-2 -12 -2 -37zM366 1245q0 16 17 33l233 209q25 23 43.5 31t40.5 8h123q23 0 37 -8.5t31 -30.5l143 -209q6 -8 6 -21 q0 -16 -12 -27t-29 -11h-74q-18 0 -29 4t-30 18l-127 96l-176 -96q-20 -12 -34.5 -17t-33.5 -5h-102q-12 0 -19.5 8t-7.5 18z" />
<glyph unicode="&#xf5;" horiz-adv-x="1214" d="M53 383q0 18 4 55t17.5 98.5t25.5 108.5q59 203 202.5 321.5t385.5 118.5q125 0 226.5 -53t157.5 -144t56 -202q0 -20 -4 -61q-4 -37 -18 -103.5t-25 -103.5q-61 -207 -197 -322.5t-390 -115.5q-127 0 -227.5 53t-157 145t-56.5 205zM322 403q0 -96 57 -137t147 -41 q98 0 178 49.5t115 165.5q12 41 24.5 98.5t14.5 86.5q2 14 2 39q0 94 -57.5 135t-145.5 41q-98 0 -178 -49.5t-117 -165.5q-12 -41 -24 -98.5t-14 -86.5q-2 -12 -2 -37zM397 1257q20 88 92 163t175 75q43 0 69.5 -10t63.5 -31q27 -14 42 -21.5t38 -7.5t36 8.5t27 24.5 q12 14 21.5 20.5t23.5 6.5h115q18 0 26.5 -11.5t4.5 -27.5q-20 -88 -92 -163t-175 -75q-43 0 -71.5 10.5t-61.5 30.5q-25 14 -42 21.5t-40 7.5q-22 0 -35.5 -8t-25.5 -25q-12 -14 -21.5 -20t-23.5 -6h-115q-18 0 -26.5 11t-4.5 27z" />
<glyph unicode="&#xf6;" horiz-adv-x="1214" d="M53 383q0 18 4 55t17.5 98.5t25.5 108.5q59 203 202.5 321.5t385.5 118.5q125 0 226.5 -53t157.5 -144t56 -202q0 -20 -4 -61q-4 -37 -18 -103.5t-25 -103.5q-61 -207 -197 -322.5t-390 -115.5q-127 0 -227.5 53t-157 145t-56.5 205zM322 403q0 -96 57 -137t147 -41 q98 0 178 49.5t115 165.5q12 41 24.5 98.5t14.5 86.5q2 14 2 39q0 94 -57.5 135t-145.5 41q-98 0 -178 -49.5t-117 -165.5q-12 -41 -24 -98.5t-14 -86.5q-2 -12 -2 -37zM376 1274l37 180q4 23 24.5 39t43.5 16h170q22 0 34.5 -16t8.5 -39l-37 -180q-4 -23 -24.5 -39 t-43.5 -16h-170q-23 0 -35 16t-8 39zM800 1274l37 180q4 23 24.5 39t43.5 16h170q22 0 34.5 -16t8.5 -39l-37 -180q-4 -23 -24.5 -39t-43.5 -16h-170q-23 0 -35 16t-8 39z" />
<glyph unicode="&#xf7;" horiz-adv-x="1067" d="M72 549l28 135q4 23 24.5 39t43.5 16h788q23 0 35.5 -16t7.5 -39l-28 -135q-4 -23 -23.5 -39t-42.5 -16h-788q-23 0 -36 16t-9 39zM289 156l41 200q4 23 24.5 39.5t42.5 16.5h191q22 0 34.5 -16.5t8.5 -39.5l-41 -200q-6 -23 -25.5 -39.5t-42.5 -16.5h-190 q-23 0 -35 16.5t-8 39.5zM440 872l41 201q4 23 24.5 39t43.5 16h190q23 0 35 -16t8 -39l-41 -201q-6 -23 -25.5 -39t-41.5 -16h-191q-23 0 -35 16.5t-8 38.5z" />
<glyph unicode="&#xf8;" horiz-adv-x="1298" d="M-45 250l22 98q4 27 17.5 42.5t42.5 25.5l61 22q4 37 17.5 98.5t25.5 108.5q59 203 202.5 321.5t385.5 118.5q150 0 262.5 -73.5t155.5 -194.5l102 37l25 6q18 0 27.5 -12t5.5 -31l-21 -98q-6 -27 -19.5 -42t-39.5 -26l-62 -22v-4q-4 -37 -18 -103.5t-25 -103.5 q-61 -207 -197.5 -322.5t-389.5 -115.5q-152 0 -263.5 74.5t-154.5 195.5l-103 -37l-24 -6q-18 0 -28.5 12t-6.5 31zM371 342q33 -117 196 -117q98 0 178 49.5t115 165.5q12 35 21 86zM383 541l510 184q-16 61 -69.5 88t-125.5 27q-129 0 -203.5 -69t-111.5 -230z" />
<glyph unicode="&#xf9;" horiz-adv-x="1247" d="M84 338q0 59 12 121l117 551q4 22 24.5 38.5t43.5 16.5h155q23 0 35 -16.5t8 -38.5l-110 -521q-12 -51 -13 -96q0 -174 179 -174q106 0 179.5 73t100.5 197l111 521q4 23 24.5 39t42.5 16h156q23 0 35 -16.5t8 -38.5l-203 -955q-4 -23 -23.5 -39t-41.5 -16h-156 q-23 0 -36 16.5t-9 38.5l10 47q-49 -61 -115.5 -91.5t-175.5 -30.5q-176 0 -267 99t-91 259zM411 1481q0 18 14.5 31.5t35.5 13.5h194q27 0 39 -6.5t29 -32.5l129 -209q6 -9 6 -21q0 -16 -12.5 -27t-28.5 -11h-113q-29 0 -44 8t-34 26l-202 201q-12 12 -13 27z" />
<glyph unicode="&#xfa;" horiz-adv-x="1247" d="M84 338q0 59 12 121l117 551q4 22 24.5 38.5t43.5 16.5h155q23 0 35 -16.5t8 -38.5l-110 -521q-12 -51 -13 -96q0 -174 179 -174q106 0 179.5 73t100.5 197l111 521q4 23 24.5 39t42.5 16h156q23 0 35 -16.5t8 -38.5l-203 -955q-4 -23 -23.5 -39t-41.5 -16h-156 q-23 0 -36 16.5t-9 38.5l10 47q-49 -61 -115.5 -91.5t-175.5 -30.5q-176 0 -267 99t-91 259zM612 1243q0 18 17 35l219 209q27 24 43 31.5t41 7.5h195q16 0 24 -9.5t8 -21.5q0 -23 -18 -35l-295 -207q-25 -18 -45.5 -26t-48.5 -8h-113q-27 0 -27 24z" />
<glyph unicode="&#xfb;" horiz-adv-x="1247" d="M84 338q0 59 12 121l117 551q4 22 24.5 38.5t43.5 16.5h155q23 0 35 -16.5t8 -38.5l-110 -521q-12 -51 -13 -96q0 -174 179 -174q106 0 179.5 73t100.5 197l111 521q4 23 24.5 39t42.5 16h156q23 0 35 -16.5t8 -38.5l-203 -955q-4 -23 -23.5 -39t-41.5 -16h-156 q-23 0 -36 16.5t-9 38.5l10 47q-49 -61 -115.5 -91.5t-175.5 -30.5q-176 0 -267 99t-91 259zM376 1245q0 16 17 33l233 209q25 23 43.5 31t40.5 8h123q23 0 37 -8.5t31 -30.5l143 -209q6 -8 6 -21q0 -16 -12 -27t-29 -11h-74q-18 0 -29 4t-30 18l-127 96l-176 -96 q-20 -12 -34.5 -17t-33.5 -5h-102q-12 0 -19.5 8t-7.5 18z" />
<glyph unicode="&#xfc;" horiz-adv-x="1247" d="M84 338q0 59 12 121l117 551q4 22 24.5 38.5t43.5 16.5h155q23 0 35 -16.5t8 -38.5l-110 -521q-12 -51 -13 -96q0 -174 179 -174q106 0 179.5 73t100.5 197l111 521q4 23 24.5 39t42.5 16h156q23 0 35 -16.5t8 -38.5l-203 -955q-4 -23 -23.5 -39t-41.5 -16h-156 q-23 0 -36 16.5t-9 38.5l10 47q-49 -61 -115.5 -91.5t-175.5 -30.5q-176 0 -267 99t-91 259zM401 1274l37 180q4 23 24.5 39t43.5 16h170q22 0 34.5 -16t8.5 -39l-37 -180q-4 -23 -24.5 -39t-43.5 -16h-170q-23 0 -35 16t-8 39zM825 1274l37 180q4 23 24.5 39t43.5 16h170 q22 0 34.5 -16t8.5 -39l-37 -180q-4 -23 -24.5 -39t-43.5 -16h-170q-23 0 -35 16t-8 39z" />
<glyph unicode="&#xfd;" horiz-adv-x="1202" d="M80 -344q0 12 6 25l258 399l-201 915q-6 27 15.5 48.5t48.5 21.5h145q47 0 58 -49l135 -625l403 625q10 18 33 33.5t45 15.5h170q18 2 31.5 -12.5t13.5 -32.5q0 -14 -8 -29l-862 -1337q-12 -18 -32 -30.5t-42 -12.5h-172q-18 0 -31.5 13.5t-13.5 31.5zM600 1243 q0 18 17 35l219 209q27 24 43 31.5t41 7.5h195q16 0 24 -9.5t8 -21.5q0 -23 -18 -35l-295 -207q-25 -18 -45.5 -26t-48.5 -8h-113q-27 0 -27 24z" />
<glyph unicode="&#xfe;" horiz-adv-x="1267" d="M-57 -334l370 1733q4 23 23.5 39t42.5 16h156q23 0 36 -16.5t9 -38.5l-95 -436q39 35 72 58t95.5 43.5t148.5 20.5q111 0 196.5 -57t134 -153.5t48.5 -208.5q0 -37 -6 -78q-20 -102 -31 -144q-53 -205 -190.5 -334.5t-346.5 -129.5q-115 0 -193.5 38.5t-109.5 83.5 l-94 -436q-4 -23 -23.5 -39t-42.5 -16h-155q-23 0 -36 16.5t-9 38.5zM375 420q0 -90 54 -142.5t146 -52.5q104 0 185.5 61.5t120.5 188.5q18 53 24 115q2 18 2 49q0 102 -53 151.5t-147 49.5q-102 0 -182.5 -60.5t-114.5 -169.5q-10 -35 -20.5 -81t-12.5 -74q-2 -12 -2 -35z " />
<glyph unicode="&#xff;" horiz-adv-x="1202" d="M80 -344q0 12 6 25l258 399l-201 915q-6 27 15.5 48.5t48.5 21.5h145q47 0 58 -49l135 -625l403 625q10 18 33 33.5t45 15.5h170q18 2 31.5 -12.5t13.5 -32.5q0 -14 -8 -29l-862 -1337q-12 -18 -32 -30.5t-42 -12.5h-172q-18 0 -31.5 13.5t-13.5 31.5zM356 1274l37 180 q4 23 24.5 39t43.5 16h170q22 0 34.5 -16t8.5 -39l-37 -180q-4 -23 -24.5 -39t-43.5 -16h-170q-23 0 -35 16t-8 39zM780 1274l37 180q4 23 24.5 39t43.5 16h170q22 0 34.5 -16t8.5 -39l-37 -180q-4 -23 -24.5 -39t-43.5 -16h-170q-23 0 -35 16t-8 39z" />
<glyph unicode="&#x152;" horiz-adv-x="2002" d="M90 461q0 55 8 104q27 162 66 303q76 276 241.5 421t468.5 145h1139q23 0 36 -16.5t9 -39.5l-33 -145q-4 -23 -23.5 -39t-41.5 -16h-662l-69 -326h616q23 0 35 -16.5t8 -38.5l-30 -146q-4 -23 -25 -39t-43 -16h-616l-72 -340h678q23 0 36 -16.5t7 -38.5l-31 -146 q-4 -23 -23.5 -39t-42.5 -16h-1124q-238 0 -375 124t-137 337zM369 498q0 -113 67.5 -177.5t208.5 -64.5h180l197 922h-170q-168 0 -271.5 -84t-140.5 -226q-39 -141 -65 -303q-6 -32 -6 -67z" />
<glyph unicode="&#x153;" horiz-adv-x="1939" d="M53 383q0 18 4 55t17.5 98.5t25.5 108.5q59 203 202.5 321.5t385.5 118.5q109 0 200 -40.5t152 -114.5q156 155 402 155q123 0 219 -55t150.5 -150.5t54.5 -211.5q0 -59 -11 -103l-18 -92q-6 -23 -25.5 -39t-42.5 -16h-684q-4 -29 -4 -39q0 -72 57.5 -113t141.5 -41 q113 0 184 47q25 16 41.5 22.5t40.5 6.5h164q20 0 32.5 -12.5t12.5 -28.5q0 -39 -59.5 -107.5t-174 -120.5t-274.5 -52q-98 0 -182 39.5t-141 111.5q-152 -152 -430 -151q-127 0 -227.5 53t-157 145t-56.5 205zM322 403q0 -96 57 -137t147 -41q98 0 178 49.5t115 165.5 q12 41 24.5 98.5t14.5 86.5q2 14 2 39q0 94 -57.5 135t-145.5 41q-98 0 -178 -49.5t-117 -165.5q-12 -41 -24 -98.5t-14 -86.5q-2 -12 -2 -37zM1135 651h462l2 29q0 160 -188 160q-106 0 -179 -57.5t-97 -131.5z" />
<glyph unicode="&#x178;" horiz-adv-x="1349" d="M213 1372q0 25 20.5 43.5t45.5 18.5h139q35 0 52 -16.5t24 -35.5l202 -571l447 571q20 27 39.5 39.5t56.5 12.5h182q21 0 34 -13.5t13 -31.5q0 -14 -10 -29l-670 -854l-96 -451q-4 -23 -23.5 -39t-41.5 -16h-162q-23 0 -36 16.5t-9 38.5l96 451l-301 848q-2 6 -2 18z M446 1591l37 181q4 23 24.5 39t43.5 16h170q22 0 34.5 -16.5t8.5 -38.5l-37 -181q-4 -23 -24.5 -39t-43.5 -16h-170q-23 0 -35 16.5t-8 38.5zM932 1591l37 181q4 23 24.5 39t42.5 16h170q23 0 35 -16.5t8 -38.5l-37 -181q-4 -23 -24.5 -39t-42.5 -16h-170q-23 0 -35 16.5 t-8 38.5z" />
<glyph unicode="&#x2c6;" horiz-adv-x="737" d="M59 1245q0 16 17 33l233 209q25 23 43.5 31t40.5 8h123q23 0 37 -8.5t31 -30.5l143 -209q6 -8 6 -21q0 -16 -12 -27t-29 -11h-74q-18 0 -29 4t-30 18l-127 96l-176 -96q-20 -12 -34.5 -17t-33.5 -5h-102q-12 0 -19.5 8t-7.5 18z" />
<glyph unicode="&#x2dc;" horiz-adv-x="798" d="M63 1257q20 88 92 163t175 75q43 0 69.5 -10t63.5 -31q27 -14 42 -21.5t38 -7.5t36 8.5t27 24.5q12 14 21.5 20.5t23.5 6.5h115q18 0 26.5 -11.5t4.5 -27.5q-20 -88 -92 -163t-175 -75q-43 0 -71.5 10.5t-61.5 30.5q-25 14 -42 21.5t-40 7.5q-22 0 -35.5 -8t-25.5 -25 q-12 -14 -21.5 -20t-23.5 -6h-115q-18 0 -26.5 11t-4.5 27z" />
<glyph unicode="&#x2000;" horiz-adv-x="932" />
<glyph unicode="&#x2001;" horiz-adv-x="1864" />
<glyph unicode="&#x2002;" horiz-adv-x="932" />
<glyph unicode="&#x2003;" horiz-adv-x="1864" />
<glyph unicode="&#x2004;" horiz-adv-x="621" />
<glyph unicode="&#x2005;" horiz-adv-x="466" />
<glyph unicode="&#x2006;" horiz-adv-x="310" />
<glyph unicode="&#x2007;" horiz-adv-x="310" />
<glyph unicode="&#x2008;" horiz-adv-x="233" />
<glyph unicode="&#x2009;" horiz-adv-x="372" />
<glyph unicode="&#x200a;" horiz-adv-x="103" />
<glyph unicode="&#x2010;" horiz-adv-x="991" d="M115 547l28 135q4 23 24.5 39t43.5 16h625q23 0 35 -16t8 -39l-29 -135q-4 -23 -23.5 -39t-42.5 -16h-624q-23 0 -36 16t-9 39z" />
<glyph unicode="&#x2011;" horiz-adv-x="991" d="M115 547l28 135q4 23 24.5 39t43.5 16h625q23 0 35 -16t8 -39l-29 -135q-4 -23 -23.5 -39t-42.5 -16h-624q-23 0 -36 16t-9 39z" />
<glyph unicode="&#x2012;" horiz-adv-x="991" d="M115 547l28 135q4 23 24.5 39t43.5 16h625q23 0 35 -16t8 -39l-29 -135q-4 -23 -23.5 -39t-42.5 -16h-624q-23 0 -36 16t-9 39z" />
<glyph unicode="&#x2013;" horiz-adv-x="1175" d="M115 547l28 135q4 23 24.5 39t43.5 16h809q23 0 35 -16t8 -39l-29 -135q-4 -23 -23.5 -39t-41.5 -16h-809q-23 0 -36 16t-9 39z" />
<glyph unicode="&#x2014;" horiz-adv-x="1564" d="M115 547l28 135q4 23 24.5 39t43.5 16h1198q23 0 35 -16t8 -39l-29 -135q-4 -23 -23.5 -39t-41.5 -16h-1198q-23 0 -36 16t-9 39z" />
<glyph unicode="&#x2018;" horiz-adv-x="532" d="M170 1026q0 14 6 23l209 340q41 66 100 65h93q18 0 30.5 -15.5t3.5 -33.5l-123 -336q-30 -80 -98 -80h-184q-16 0 -26.5 11.5t-10.5 25.5z" />
<glyph unicode="&#x2019;" horiz-adv-x="520" d="M188 1038l123 336q31 80 99 80h184q18 0 27.5 -11t9.5 -26q0 -12 -6 -22l-209 -340q-41 -66 -101 -66h-92q-18 0 -30.5 15.5t-4.5 33.5z" />
<glyph unicode="&#x201a;" horiz-adv-x="546" d="M-66 -104l123 335q31 80 99 80h184q18 0 27.5 -11t9.5 -26q0 -12 -6 -22l-209 -340q-41 -66 -101 -66h-92q-18 0 -30.5 15.5t-4.5 34.5z" />
<glyph unicode="&#x201c;" horiz-adv-x="942" d="M170 1026q0 14 6 23l209 340q41 66 100 65h93q18 0 30.5 -15.5t3.5 -33.5l-123 -336q-30 -80 -98 -80h-184q-16 0 -26.5 11.5t-10.5 25.5zM578 1026q0 14 6 23l209 340q41 66 100 65h92q18 0 30.5 -15.5t4.5 -33.5l-123 -336q-30 -80 -98 -80h-185q-16 0 -26 11.5 t-10 25.5z" />
<glyph unicode="&#x201d;" horiz-adv-x="927" d="M188 1038l123 336q31 80 99 80h184q18 0 27.5 -11t9.5 -26q0 -12 -6 -22l-209 -340q-41 -66 -101 -66h-92q-18 0 -30.5 15.5t-4.5 33.5zM596 1038l123 336q30 80 98 80h184q18 0 27.5 -11t9.5 -26q0 -12 -6 -22l-209 -340q-41 -66 -100 -66h-92q-18 0 -30.5 15.5 t-4.5 33.5z" />
<glyph unicode="&#x201e;" horiz-adv-x="954" d="M-66 -104l123 335q31 80 99 80h184q18 0 27.5 -11t9.5 -26q0 -12 -6 -22l-209 -340q-41 -66 -101 -66h-92q-18 0 -30.5 15.5t-4.5 34.5zM342 -104l123 335q30 80 98 80h185q18 0 27 -11t9 -26q0 -12 -6 -22l-209 -340q-41 -66 -100 -66h-92q-18 0 -30.5 15.5t-4.5 34.5z " />
<glyph unicode="&#x2022;" horiz-adv-x="784" d="M141 563q0 76 44 144.5t115 110.5t146 42q86 0 142.5 -55t56.5 -139q0 -76 -44 -144.5t-113.5 -110.5t-145.5 -42q-88 0 -144.5 55t-56.5 139z" />
<glyph unicode="&#x2026;" horiz-adv-x="1419" d="M2 55l43 201q4 23 24.5 39t43.5 16h190q23 0 35 -16t8 -39l-43 -201q-4 -23 -23.5 -39t-41.5 -16h-191q-23 0 -36 16.5t-9 38.5zM446 55l43 201q4 23 24.5 39t43.5 16h190q23 0 35 -16t8 -39l-43 -201q-4 -23 -23.5 -39t-41.5 -16h-191q-23 0 -36 16.5t-9 38.5zM891 55 l43 201q4 23 24.5 39t43.5 16h190q23 0 35 -16t8 -39l-43 -201q-4 -23 -23.5 -39t-41.5 -16h-191q-23 0 -36 16.5t-9 38.5z" />
<glyph unicode="&#x202f;" horiz-adv-x="372" />
<glyph unicode="&#x2039;" horiz-adv-x="716" d="M86 606l29 135q8 31 41 58l487 391q10 10 29 10q18 0 29.5 -13t7.5 -32l-50 -221q-8 -35 -19 -53.5t-36 -38.5l-254 -205l168 -205q20 -27 21 -55q0 -23 -4 -37l-31 -147q-4 -20 -20.5 -33t-32.5 -13q-18 0 -31 15l-318 387q-23 25 -16 57z" />
<glyph unicode="&#x203a;" horiz-adv-x="716" d="M37 190l49 222q8 35 19.5 53t35.5 39l254 205l-168 204q-20 27 -20 56q0 23 4 37l31 147q4 20 20.5 32.5t32.5 12.5q18 0 31 -14l317 -387q23 -25 16 -58l-28 -135q-8 -30 -41 -57l-488 -391q-10 -10 -28 -11q-18 0 -29.5 13.5t-7.5 31.5z" />
<glyph unicode="&#x205f;" horiz-adv-x="466" />
<glyph unicode="&#x20ac;" horiz-adv-x="1556" d="M59 551l15 74q4 20 19.5 32.5t35.5 12.5h131l12 61h-131q-20 0 -29.5 12.5t-5.5 32.5l17 74q2 20 17.5 32.5t35.5 12.5h133q137 559 699 559q170 0 291.5 -60.5t185 -154.5t63.5 -195q0 -14 -4 -43q-2 -25 -21.5 -40t-43.5 -15h-166q-43 0 -51 43q-14 96 -71.5 152.5 t-215.5 56.5q-164 0 -259 -83t-130 -220h370q20 0 30.5 -12.5t6.5 -32.5l-16 -74q-4 -20 -19.5 -32.5t-35.5 -12.5h-373l-12 -61h372q20 0 29.5 -12.5t5.5 -32.5l-14 -74q-4 -20 -19.5 -32.5t-36.5 -12.5h-370q-4 -33 -4 -47q0 -96 64.5 -161t205.5 -65q158 0 239 56.5 t136 152.5q27 43 69 43h166q25 0 38.5 -15t4.5 -40q-31 -113 -110.5 -215t-224 -170t-353.5 -68q-147 0 -265 59.5t-184.5 162t-66.5 227.5q0 27 8 80h-133q-20 0 -29.5 12t-5.5 33z" />
<glyph unicode="&#x2122;" horiz-adv-x="1316" d="M233 1323l15 66q4 20 18.5 32.5t34.5 12.5h373q20 0 30.5 -12.5t6.5 -32.5l-15 -66q-4 -20 -19 -32.5t-36 -12.5h-106l-74 -344q-2 -20 -17.5 -32.5t-35.5 -12.5h-70q-20 0 -30.5 12t-6.5 33l74 344h-107q-20 0 -29.5 12.5t-5.5 32.5zM674 934l98 455q4 20 18.5 32.5 t34.5 12.5h72q25 0 36 -11.5t19 -33.5l62 -183l135 183q16 22 31.5 33.5t40.5 11.5h84q20 0 30.5 -12.5t5.5 -32.5l-98 -455q-4 -20 -18.5 -32.5t-34.5 -12.5h-70q-20 0 -30.5 12t-6.5 33l45 209l-59 -82q-16 -20 -29.5 -30.5t-33.5 -10.5h-58q-18 0 -26.5 9t-16.5 32 l-26 82l-45 -209q-4 -20 -18.5 -32.5t-35.5 -12.5h-69q-20 0 -30.5 12t-6.5 33z" />
<glyph unicode="&#x25fc;" horiz-adv-x="1064" d="M0 0v1065h1065v-1065h-1065z" />
<glyph unicode="&#xfb03;" horiz-adv-x="1998" d="M104 874l29 136q4 23 24.5 39t43.5 16h135l20 92q41 193 155 276t306 83h187q23 0 35 -16.5t8 -39.5l-29 -135q-4 -23 -24.5 -39t-43.5 -16h-145q-70 0 -121 -31t-68 -102l-14 -72h420l20 92q41 193 155 276t306 83h494q23 0 35 -16.5t8 -39.5l-29 -135q-4 -23 -24.5 -39 t-42.5 -16h-453q-70 0 -121 -31t-67 -102l-15 -72h613q23 0 35 -16.5t8 -38.5l-203 -955q-4 -22 -23.5 -38.5t-42.5 -16.5h-155q-23 0 -36.5 16.5t-8.5 38.5l161 764h-399l-164 -764q-4 -23 -23.5 -39t-41.5 -16h-156q-23 0 -36 16.5t-9 38.5l164 764h-420l-164 -764 q-4 -23 -23.5 -39t-41.5 -16h-156q-23 0 -36 16.5t-9 38.5l164 764h-135q-23 0 -36.5 16.5t-9.5 38.5z" />
<glyph unicode="&#xfb04;" horiz-adv-x="2017" d="M104 874l29 136q4 23 24.5 39t43.5 16h135l20 92q41 193 155 276t306 83h187q23 0 35 -16.5t8 -39.5l-29 -135q-4 -23 -24.5 -39t-43.5 -16h-145q-70 0 -121 -31t-68 -102l-14 -72h420l20 92q41 193 155 276t306 83h187q23 0 35 -16.5t8 -39.5l-29 -135q-4 -23 -24.5 -39 t-43.5 -16h-145q-70 0 -121 -31t-67 -102l-15 -72h420l84 395q4 23 23.5 39.5t42.5 16.5h155q23 0 36 -16.5t9 -39.5l-299 -1405q-4 -23 -23.5 -39t-41.5 -16h-156q-23 0 -36 16.5t-9 38.5l162 764h-418l-164 -764q-4 -23 -23.5 -39t-41.5 -16h-156q-23 0 -36 16.5t-9 38.5 l164 764h-420l-164 -764q-4 -23 -23.5 -39t-41.5 -16h-156q-23 0 -36 16.5t-9 38.5l164 764h-135q-23 0 -36.5 16.5t-9.5 38.5z" />
</font>
</defs>
</svg>
